<?xml version="1.0" encoding="UTF-8"?>
<svg width="24px" height="24px" viewBox="0 0 24 24" version="1.1" xmlns="http://www.w3.org/2000/svg" xmlns:xlink="http://www.w3.org/1999/xlink">
    <!-- Generator: Sketch 63 (92445) - https://sketch.com -->
    <title>图标 1123</title>
    <desc>Created with Sketch.</desc>
    <g id="页面-1" stroke="none" stroke-width="1" fill="none" fill-rule="evenodd">
        <g id="XX船舰切图" transform="translate(-293.000000, -233.000000)" fill="#FF5757" fill-rule="nonzero">
            <g id="图标-1123_export" transform="translate(293.000000, 233.000000)">
                <g id="图标-1123" transform="translate(2.000000, 2.000000)">
                    <path d="M17.5833333,0.25 L2.41666667,0.25 C1.21958333,0.25 0.25,1.21958333 0.25,2.41666667 L0.25,17.5833333 C0.25,18.7804167 1.21958333,19.75 2.41666667,19.75 L17.5833333,19.75 C18.7804167,19.75 19.75,18.7804167 19.75,17.5833333 L19.75,2.41666667 C19.75,1.21958333 18.7804167,0.25 17.5833333,0.25 Z M15.4166667,11.0833333 L11.0833333,11.0833333 L11.0833333,15.4166667 L8.91666667,15.4166667 L8.91666667,11.0833333 L4.58333333,11.0833333 L4.58333333,8.91666667 L8.91666667,8.91666667 L8.91666667,4.58333333 L11.0833333,4.58333333 L11.0833333,8.91666667 L15.4166667,8.91666667 L15.4166667,11.0833333 Z" id="形状"></path>
                </g>
            </g>
        </g>
    </g>
</svg>