<?xml version="1.0" encoding="UTF-8"?>
<svg width="18px" height="18px" viewBox="0 0 18 18" version="1.1" xmlns="http://www.w3.org/2000/svg" xmlns:xlink="http://www.w3.org/1999/xlink">
    <!-- Generator: Sketch 63 (92445) - https://sketch.com -->
    <title>新建评估</title>
    <desc>Created with Sketch.</desc>
    <g id="页面-1" stroke="none" stroke-width="1" fill="none" fill-rule="evenodd">
        <g id="新建评估_export备份" fill="#FFFFFF" fill-rule="nonzero">
            <g id="新建评估" transform="translate(2.500000, 2.157895)">
                <path d="M0.00628618421,0 L0.00628618421,3.40394737 L3.21933882,3.40394737 L3.21933882,0 L0.00628618421,0 Z M2.15470724,2.27978947 L1.07160197,2.27978947 L1.07160197,1.13647368 L2.15470724,1.13647368 L2.15470724,2.27978947 Z M6.46523355,10.2672632 L6.46523355,13.6780526 L12.9775493,13.6780526 L12.9775493,10.2672632 L6.46523355,10.2672632 Z M11.878023,12.5436316 L7.55860197,12.5436316 L7.55860197,11.4003158 L11.878023,11.4003158 L11.878023,12.5436316 Z M4.31749671,0 L4.31749671,3.40394737 L12.9618125,3.40394737 L12.9618125,0 L4.31749671,0 Z M11.8807599,2.27978947 L5.39786513,2.27978947 L5.39786513,1.13647368 L11.8807599,1.13647368 L11.8807599,2.27978947 Z M6.46523355,5.70631579 L6.46523355,9.11710526 L12.9624967,9.11710526 L12.9624967,5.70563158 L6.46523355,5.70563158 L6.46523355,5.70631579 Z M11.8657072,7.98268421 L7.55654934,7.98268421 L7.55654934,6.838 L11.8657072,6.838 L11.8657072,7.982 L11.8657072,7.98268421 Z M1.07570724,3.40394737 L2.15675987,3.40394737 L2.15675987,12.5388421 L1.07570724,12.5388421 L1.07570724,3.40394737 Z M2.15675987,11.4003158 L6.46523355,11.4003158 L6.46523355,12.5388421 L2.15675987,12.5388421 L2.15675987,11.4003158 Z M2.15675987,6.84210526 L6.46523355,6.84210526 L6.46523355,7.97105263 L2.15675987,7.97105263 L2.15675987,6.84210526 L2.15675987,6.84210526 Z" id="形状"></path>
            </g>
        </g>
    </g>
</svg>