<?xml version="1.0" encoding="utf-8"?>
<!-- Generator: Adobe Illustrator 23.0.1, SVG Export Plug-In . SVG Version: 6.00 Build 0)  -->
<svg version="1.1" id="图层_1" xmlns="http://www.w3.org/2000/svg" xmlns:xlink="http://www.w3.org/1999/xlink" x="0px" y="0px"
	 viewBox="0 0 18 18" style="enable-background:new 0 0 18 18;" xml:space="preserve">
<style type="text/css">
	.st0{fill:#00DBFF;}
</style>
<title>新建评估</title>
<desc>Created with Sketch.</desc>
<g id="页面-1">
	<g id="新建评估_export">
		<g id="新建评估" transform="translate(2.500000, 2.157895)">
			<path id="形状" class="st0" d="M0,0v3.4h3.2V0H0z M2.2,2.3H1.1V1.1h1.1V2.3z M6.5,10.3v3.4H13v-3.4H6.5z M11.9,12.5H7.6v-1.1
				h4.3V12.5z M4.3,0v3.4H13V0H4.3z M11.9,2.3H5.4V1.1h6.5V2.3z M6.5,5.7v3.4H13V5.7L6.5,5.7L6.5,5.7z M11.9,8H7.6V6.8h4.3V8L11.9,8
				z M1.1,3.4h1.1v9.1H1.1V3.4z M2.2,11.4h4.3v1.1H2.2V11.4z M2.2,6.8h4.3V8H2.2V6.8L2.2,6.8z"/>
		</g>
	</g>
</g>
</svg>
