<?xml version="1.0" standalone="no"?>
<!DOCTYPE svg PUBLIC "-//W3C//DTD SVG 1.1//EN" "http://www.w3.org/Graphics/SVG/1.1/DTD/svg11.dtd">
<svg t="1606566315627" class="icon" viewBox="0 0 1024 1024" version="1.1" xmlns="http://www.w3.org/2000/svg" p-id="3785" xmlns:xlink="http://www.w3.org/1999/xlink" width="16" height="16">
	<defs>
		<style type="text/css">
		</style>
	</defs>
	<path d="M789.546667 353.664a32 32 0 0 1 31.829333 28.928l0.149333 3.072v464.149333a103.594667 103.594667 0 0 1-99.114666 103.36l-4.629334 0.106667H306.197333a103.637333 103.637333 0 0 1-103.637333-98.858667l-0.106667-4.608V385.664a32 32 0 0 1 63.850667-3.072l0.149333 3.072v464.149333c0 20.736 16.128 37.76 36.650667 39.338667l3.093333 0.128h411.584c20.949333 0 38.058667-16.042667 39.637334-36.394667l0.106666-3.072V385.664a32 32 0 0 1 32-32z m-385.258667 71.253333a32 32 0 0 1 31.850667 28.906667l0.149333 3.072V800.213333a32 32 0 0 1-63.850667 3.093334l-0.149333-3.093334V456.896a32 32 0 0 1 32-32z m211.989333 0a32 32 0 0 1 31.850667 28.906667l0.149333 3.072V800.213333a32 32 0 0 1-63.850666 3.093334l-0.149334-3.093334V456.896a32 32 0 0 1 32-32zM706.901333 85.333333a96 96 0 0 1 96 96l-0.021333 70.826667h147.818667c16.917333 0 30.634667 13.717333 30.634666 30.656v2.709333c0 16.917333-13.717333 30.634667-30.634666 30.634667H73.301333A30.634667 30.634667 0 0 1 42.666667 285.525333v-2.709333c0-16.938667 13.717333-30.656 30.634666-30.656h147.797334V181.333333a96 96 0 0 1 96-96h389.802666z m0 64H317.12a32 32 0 0 0-32 32v70.826667h453.76V181.333333a32 32 0 0 0-32-32z" fill='rgb(247, 53, 11)' p-id="3786">
	</path>
</svg>
