<?xml version="1.0" encoding="UTF-8"?>
<svg width="24px" height="24px" viewBox="0 0 24 24" version="1.1" xmlns="http://www.w3.org/2000/svg" xmlns:xlink="http://www.w3.org/1999/xlink">
    <!-- Generator: Sketch 63 (92445) - https://sketch.com -->
    <title>删除标</title>
    <desc>Created with Sketch.</desc>
    <g id="页面-1" stroke="none" stroke-width="1" fill="none" fill-rule="evenodd">
        <g id="XX船舰切图" transform="translate(-363.000000, -233.000000)" fill="#F62C00" fill-rule="nonzero">
            <g id="删除标_export" transform="translate(363.000000, 233.000000)">
                <g id="删除标" transform="translate(2.500000, 2.682692)">
                    <path d="M14.7145447,15.7947155 C14.7145447,16.4284846 14.1975472,16.9434221 13.5612425,16.9434221 L5.28928228,16.9434221 C4.65297764,16.9434221 4.13598013,16.4284846 4.13598013,15.7947155 L4.13598013,3.6441726 L14.7046024,3.6441726 L14.7046024,15.7947155 L14.7145447,15.7947155 Z M6.43264217,1.59432551 C6.43264217,1.46559115 6.53206477,1.35666208 6.67125641,1.35666208 L12.1892107,1.35666208 C12.31846,1.35666208 12.4278249,1.45568851 12.4278249,1.59432551 L12.4278249,2.28751052 L6.43264217,2.28751052 L6.43264217,1.59432551 Z M18.1545666,2.28751052 L13.7998568,2.28751052 L13.7998568,1.59432551 C13.7998568,0.712990292 13.0740718,0 12.1991529,0 L6.67125641,0 C5.78639527,0 5.07055256,0.722892934 5.07055256,1.59432551 L5.07055256,2.28751052 L0.695958194,2.28751052 C0.308210058,2.28751052 0,2.59449245 0,2.98069552 C0,3.3668986 0.308210058,3.67388053 0.695958194,3.67388053 L2.754006,3.67388053 L2.754006,15.8046181 C2.754006,17.2008908 3.88742363,18.3297921 5.28928228,18.3297921 L13.5612425,18.3297921 C14.9631012,18.3297921 16.0965188,17.2008908 16.0965188,15.8046181 L16.0965188,3.6441726 L18.1545666,3.6441726 C18.5423148,3.6441726 18.8505248,3.33719067 18.8505248,2.9509876 C18.8505248,2.56478452 18.5423148,2.28751052 18.1545666,2.28751052 Z M9.4252624,14.8737697 C9.81301054,14.8737697 10.1212206,14.5667878 10.1212206,14.1805847 L10.1212206,6.84272627 C10.1212206,6.4565232 9.81301054,6.14954126 9.4252624,6.14954126 C9.03751427,6.14954126 8.72930421,6.4565232 8.72930421,6.84272627 L8.72930421,14.1805847 C8.72930421,14.5568851 9.03751427,14.8737697 9.4252624,14.8737697 M6.20397019,14.8737697 C6.59171833,14.8737697 6.89992838,14.5667878 6.89992838,14.1805847 L6.89992838,6.84272627 C6.89992838,6.4565232 6.59171833,6.14954126 6.20397019,6.14954126 C5.81622205,6.14954126 5.508012,6.4565232 5.508012,6.84272627 L5.508012,14.1805847 C5.51795426,14.5568851 5.83610657,14.8737697 6.20397019,14.8737697 M12.6465546,14.8737697 C13.0343028,14.8737697 13.3425128,14.5667878 13.3425128,14.1805847 L13.3425128,6.84272627 C13.3425128,6.4565232 13.0343028,6.14954126 12.6465546,6.14954126 C12.2588065,6.14954126 11.9505964,6.4565232 11.9505964,6.84272627 L11.9505964,14.1805847 C11.9605387,14.5568851 12.2687487,14.8737697 12.6465546,14.8737697" id="形状"></path>
                </g>
            </g>
        </g>
    </g>
</svg>