<?xml version="1.0" encoding="UTF-8"?>
<svg width="18px" height="18px" viewBox="0 0 18 18" version="1.1" xmlns="http://www.w3.org/2000/svg" xmlns:xlink="http://www.w3.org/1999/xlink">
    <!-- Generator: Sketch 63 (92445) - https://sketch.com -->
    <title>编辑</title>
    <desc>Created with Sketch.</desc>
    <g id="页面-1" stroke="none" stroke-width="1" fill="none" fill-rule="evenodd">
        <g id="编辑_export备份" fill="#FFFFFF" fill-rule="nonzero">
            <g id="编辑" transform="translate(2.000000, 2.000000)">
                <g id="修改标" transform="translate(0.466667, 0.466667)">
                    <path d="M5.12866667,8.37939942 C4.91375371,8.59124632 4.56899877,8.59269694 4.35231066,8.38266608 C4.24901277,8.28254419 4.19043534,8.1450097 4.18981568,8.00115408 C4.1892058,7.85729847 4.2466056,7.71926835 4.349044,7.61826724 L11.4223573,0.588019229 C11.6371428,0.376851949 11.9811108,0.375402693 12.197668,0.584752578 C12.3009328,0.684892496 12.3594871,0.822420393 12.3601068,0.966264817 C12.3607166,1.11010924 12.3033398,1.24813257 12.2009347,1.34915142 L5.12866667,8.3793341 L5.12866667,8.37939942 Z M11.9690667,5.98297639 C11.9720836,5.68272128 12.2176055,5.44158411 12.5178667,5.44397721 C12.818499,5.44173086 13.064115,5.6834576 13.0666667,5.98408705 L13.0666667,11.4421561 C13.0666667,12.3350001 12.330556,13.066667 11.4355547,13.066667 L1.631112,13.066667 C0.733432001,13.064315 0.00535733735,12.3387241 0,11.4411108 L0,1.624531 C0,0.731687017 0.73611067,1.00068305e-05 1.631112,1.00068305e-05 L7.08317867,1.00068305e-05 C7.38343737,-0.00179125705 7.62848883,0.239810884 7.63093333,0.540064637 C7.62848883,0.840292741 7.38347727,1.08188437 7.083244,1.08010916 L1.63117733,1.08010916 C1.33525026,1.08718273 1.09871833,1.32852197 1.09759999,1.624531 L1.09759999,11.4411108 C1.09759999,11.737201 1.3426,11.9854673 1.631112,11.9854673 L11.4355547,11.9854673 C11.7219107,11.9854673 11.9690667,11.7383117 11.9690667,11.4411108 L11.9690667,5.98297639 Z" id="形状"></path>
                </g>
            </g>
        </g>
    </g>
</svg>