<?xml version="1.0" encoding="UTF-8"?>
<svg width="24px" height="24px" viewBox="0 0 24 24" version="1.1" xmlns="http://www.w3.org/2000/svg" xmlns:xlink="http://www.w3.org/1999/xlink">
    <!-- Generator: Sketch 63 (92445) - https://sketch.com -->
    <title>编辑标</title>
    <desc>Created with Sketch.</desc>
    <g id="页面-1" stroke="none" stroke-width="1" fill="none" fill-rule="evenodd">
        <g id="XX船舰切图" transform="translate(-331.000000, -233.000000)" fill="#3ABD00" fill-rule="nonzero" stroke="#3ABD00" stroke-width="0.15">
            <g id="编辑标_export" transform="translate(331.000000, 233.000000)">
                <g id="编辑标" transform="translate(3.000000, 3.000000)">
                    <path d="M9.75699009,-0.0749848655 L2.24694,-0.0749862151 C1.60968469,-0.0749862151 1.02896627,0.185514004 0.607703252,0.605074768 C0.186672016,1.02440469 -0.075,1.60251848 -0.075,2.23787429 L-0.075,15.7607135 C-0.0711858117,16.3999984 0.189806563,16.977622 0.609568733,17.3959544 C1.02933007,17.8142859 1.60785974,18.0733258 2.24674349,18.0749997 L15.75306,18.075 C16.3903162,18.075 16.9710354,17.8145025 17.3922985,17.3949443 C17.8133287,16.975618 18.075,16.3975084 18.075,15.7621534 L18.075,8.24338502 C18.0730641,8.0149872 17.9790564,7.8095387 17.8285911,7.66145599 C17.6781258,7.51337332 17.471203,7.42265641 17.2434396,7.42435827 C17.0171056,7.42254543 16.81035,7.51298736 16.659896,7.66075444 C16.509442,7.80852157 16.4152896,8.01361388 16.4130038,8.24110146 L16.413,15.7607135 C16.413,15.9443043 16.3367437,16.112362 16.2166085,16.2349391 C16.0959719,16.3580279 15.9307845,16.4355923 15.75306,16.4355923 L2.24694,16.4355923 C2.06839532,16.4355923 1.90362416,16.3581735 1.78341056,16.2355164 C1.66300666,16.112665 1.58699999,15.9441508 1.58699999,15.7607135 L1.58699999,2.23787429 C1.58769302,2.05458025 1.6613854,1.88795529 1.78078602,1.76612796 C1.90018668,1.64430059 2.0652956,1.56727088 2.24882222,1.56288402 L9.75753001,1.56290544 C9.98455754,1.56424911 10.1911092,1.47340095 10.3412562,1.32534978 C10.4914032,1.17729858 10.5851454,0.97204434 10.5869975,0.744577214 C10.5851454,0.515870527 10.491389,0.310603433 10.3412232,0.16254858 C10.1910567,0.0144930651 9.98448036,-0.0763495887 9.75699009,-0.0749848655 Z M16.8551221,0.751685087 C16.6912554,0.593271931 16.479292,0.514654045 16.2676637,0.515545708 C16.0560354,0.516437371 15.8447421,0.596838584 15.6822994,0.756544915 L5.93815917,10.4413569 C5.78288533,10.5944512 5.69575982,10.8039622 5.69668554,11.0223157 C5.69762611,11.2406742 5.78653911,11.4494329 5.94333136,11.6014044 C6.1072193,11.7602572 6.31954038,11.839132 6.5315238,11.8382222 C6.74349232,11.8373125 6.95512418,11.7566298 7.11765887,11.5963645 L16.8602845,1.9117159 C17.0155141,1.75858856 17.1026026,1.54909264 17.101677,1.33076109 C17.1007365,1.11242444 17.0118606,0.903680508 16.8551221,0.751685087 Z" id="形状备份"></path>
                </g>
            </g>
        </g>
    </g>
</svg>