<?xml version="1.0" standalone="no"?>
<!DOCTYPE svg PUBLIC "-//W3C//DTD SVG 1.1//EN" "http://www.w3.org/Graphics/SVG/1.1/DTD/svg11.dtd">
<svg t="1606566120189" class="icon" viewBox="0 0 1024 1024" version="1.1" xmlns="http://www.w3.org/2000/svg" p-id="2936" xmlns:xlink="http://www.w3.org/1999/xlink" width="16" height="16">
	<defs>
		<style type="text/css">
		</style>
	</defs>
	<path d="M322.496 691.52a51.2 51.2 0 0 0 73.792 0l576.32-576.32a52.544 52.544 0 0 0 0-74.88 51.2 51.2 0 0 0-73.856 0L322.56 616.512a52.544 52.544 0 0 0 0 74.88z" fill="rgb(110, 207, 67)" p-id="2937">
	</path>
	<path d="M960.512 432.576a52.928 52.928 0 0 0-52.928 52.864v422.016H116.48V116.288h422.016c28.672 0 51.84-23.104 52.928-52.864a52.672 52.672 0 0 0-51.84-52.928H63.488a52.928 52.928 0 0 0-52.864 52.928v896.96a52.48 52.48 0 0 0 52.864 52.864h897.024a52.48 52.48 0 0 0 52.864-52.864v-474.88a52.928 52.928 0 0 0-52.864-52.928z" fill="rgb(10, 207, 67)" p-id="2938">
	</path>
</svg>
