<?xml version="1.0" encoding="utf-8"?>
<!-- Generator: Adobe Illustrator 23.0.1, SVG Export Plug-In . SVG Version: 6.00 Build 0)  -->
<svg version="1.1" id="图层_1" xmlns="http://www.w3.org/2000/svg" xmlns:xlink="http://www.w3.org/1999/xlink" x="0px" y="0px"
	 viewBox="0 0 18 18" style="enable-background:new 0 0 18 18;" xml:space="preserve">
<style type="text/css">
	.st0{fill:#31E000;}
</style>
<title>编辑</title>
<desc>Created with Sketch.</desc>
<g id="页面-1">
	<g id="编辑_export">
		<g id="编辑" transform="translate(2.000000, 2.000000)">
			<g id="修改标" transform="translate(0.466667, 0.466667)">
				<path id="形状" class="st0" d="M5.1,8.4c-0.2,0.2-0.6,0.2-0.8,0C4.2,8.3,4.2,8.1,4.2,8c0-0.1,0.1-0.3,0.2-0.4l7.1-7
					c0.2-0.2,0.6-0.2,0.8,0c0.1,0.1,0.2,0.2,0.2,0.4c0,0.1-0.1,0.3-0.2,0.4L5.1,8.4L5.1,8.4z M12,6c0-0.3,0.2-0.5,0.5-0.5
					S13,5.7,13,6v5.5c0,0.9-0.7,1.6-1.6,1.6H1.6c-0.9,0-1.6-0.7-1.6-1.6V1.6C0,0.7,0.7,0,1.6,0h5.5c0.3,0,0.5,0.2,0.5,0.5
					S7.4,1,7.1,1H1.6C1.3,1,1.1,1.2,1.1,1.5v9.8c0,0.3,0.2,0.5,0.5,0.5h9.8c0.3,0,0.5-0.2,0.5-0.5L12,6L12,6z"/>
			</g>
		</g>
	</g>
</g>
</svg>
