<?xml version="1.0" encoding="UTF-8"?>
<svg width="20px" height="20px" viewBox="0 0 20 20" version="1.1" xmlns="http://www.w3.org/2000/svg" xmlns:xlink="http://www.w3.org/1999/xlink">
    <!-- Generator: Sketch 63 (92445) - https://sketch.com -->
    <title>形状</title>
    <desc>Created with Sketch.</desc>
    <g id="页面-1" stroke="none" stroke-width="1" fill="none" fill-rule="evenodd">
        <g id="常用地点" transform="translate(-276.000000, -32.000000)" fill="#FFACAC" fill-rule="nonzero">
            <g id="形状_export" transform="translate(276.000000, 32.000000)">
                <path d="M17.4380197,3.57472734 C15.3339431,1.56656837 12.1778435,1.43269634 10.0737823,3.44085531 C7.83820666,1.43269634 4.68210713,1.56656837 2.57804591,3.57472734 C0.473984695,5.71675835 0.473984695,9.06370043 2.57804591,11.2057314 L8.75874597,17.4979681 C9.41625643,18.167344 10.4682947,18.167344 11.1258206,17.4979681 L17.3065053,11.2057314 C19.5420809,9.19757246 19.5420809,5.71675835 17.4380197,3.57472734 L17.4380197,3.57472734 Z M16.6489948,10.4024678 L10.4682947,16.6947045 C10.2052813,16.9624486 9.94228329,16.9624486 9.67926986,16.6947045 L3.3670708,10.4024678 C1.65752202,8.79594067 1.65752202,5.98451811 3.3670708,4.37799093 C4.94512056,2.77146375 7.57520864,2.77146375 9.28475742,4.2441189 L10.0737823,4.91349476 L10.8628072,4.2441189 C12.572356,2.63759172 15.070945,2.77146375 16.7804938,4.37799093 C18.2270446,6.11839014 18.2270446,8.79594067 16.6489948,10.4024678 Z" id="形状"></path>
            </g>
        </g>
    </g>
</svg>