<?xml version="1.0" encoding="utf-8"?>
<!-- Generator: Adobe Illustrator 23.0.1, SVG Export Plug-In . SVG Version: 6.00 Build 0)  -->
<svg version="1.1" id="图层_1" xmlns="http://www.w3.org/2000/svg" xmlns:xlink="http://www.w3.org/1999/xlink" x="0px" y="0px"
	 viewBox="0 0 18 18" style="enable-background:new 0 0 18 18;" xml:space="preserve">
<style type="text/css">
	.st0{fill:none;}
	.st1{fill:#FFE000;}
</style>
<title>详情</title>
<desc>Created with Sketch.</desc>
<g id="页面-1">
	<g id="详情_export">
		
			<g id="详情" transform="translate(9.000000, 9.000000) rotate(-180.000000) translate(-9.000000, -9.000000) translate(0.000000, -0.000000)">
			<polygon id="路径" class="st0" points="0,0 18,0 18,18 0,18 			"/>
			<path id="形状" class="st1" d="M8.2,11.3h1.5v1.5H8.2V11.3z M8.2,5.3h1.5v4.5H8.2V5.3z M9,1.5C4.9,1.5,1.5,4.9,1.5,9
				s3.4,7.5,7.5,7.5s7.5-3.4,7.5-7.5S13.1,1.5,9,1.5z M9,15c-3.3,0-6-2.7-6-6s2.7-6,6-6s6,2.7,6,6S12.3,15,9,15z"/>
		</g>
	</g>
</g>
</svg>
