<?xml version="1.0" encoding="UTF-8"?>
<svg width="24px" height="24px" viewBox="0 0 24 24" version="1.1" xmlns="http://www.w3.org/2000/svg" xmlns:xlink="http://www.w3.org/1999/xlink">
    <!-- Generator: Sketch 63 (92445) - https://sketch.com -->
    <title>航线</title>
    <desc>Created with Sketch.</desc>
    <g id="页面-1" stroke="none" stroke-width="1" fill="none" fill-rule="evenodd">
        <g id="航线_export" fill="#FFFFFF" fill-rule="nonzero">
            <g id="航线" transform="translate(2.000000, 3.897436)">
                <path d="M19.8403312,1.57350427 L18.4119124,0.144871795 C18.2362824,-0.0306497417 17.9516449,-0.0306497417 17.776015,0.144871795 L16.3473825,1.57350427 C16.2338285,1.68709641 16.189501,1.85264019 16.2310977,2.00777689 C16.2726944,2.16291358 16.3938957,2.28407423 16.5490464,2.32561878 C16.7041971,2.36716333 16.8697259,2.32278018 16.9832799,2.20918803 L17.3446047,1.8482906 L17.3446047,4.62606838 C17.3446047,5.03992791 17.6801041,5.37542735 18.0939637,5.37542735 C18.5078232,5.37542735 18.8433226,5.03992791 18.8433226,4.62606838 L18.8433226,1.8482906 L19.2044338,2.20961538 C19.3179877,2.32320753 19.4835166,2.36759068 19.6386673,2.32604613 C19.7938179,2.28450158 19.9150193,2.16334093 19.956616,2.00820424 C19.9982127,1.85306755 19.9538852,1.68752376 19.8403312,1.57393162 L19.8403312,1.57350427 Z M13.3078526,6.87371795 C13.303281,7.14441569 13.4450794,7.39653019 13.6787783,7.53321597 C13.9124772,7.66990174 14.2017322,7.66990174 14.4354311,7.53321597 C14.66913,7.39653019 14.8109284,7.14441569 14.8064641,6.87371795 L14.8064641,3.83782051 C14.8064641,2.98482906 14.5394765,2.1758547 14.0548611,1.55961538 C13.5362714,0.9 12.8012286,0.521581197 12.0386218,0.521581197 C11.276015,0.521581197 10.5411859,0.9 10.0223825,1.55961538 C9.53776709,2.1758547 9.27088675,2.98504273 9.27088675,3.83782051 L9.27088675,12.8373932 C9.27088675,13.8224359 8.68969017,14.6549145 8.00186966,14.6549145 C7.31404915,14.6549145 6.73263889,13.8215812 6.73263889,12.8373932 L6.73263889,4.08418803 L6.74353632,3.87735043 L6.74353632,3.83782051 C6.74353632,2.98504273 6.47665598,2.1758547 5.99225427,1.55961538 C5.47345085,0.9 4.7386218,0.521794872 3.97580128,0.521794872 C3.21298077,0.521794872 2.47836538,0.9 1.95956197,1.55961538 C1.47494658,2.1758547 1.20806624,2.98504273 1.20806624,3.83782051 L1.20806624,7.3207265 C1.20806624,7.73458603 1.54356568,8.07008547 1.95742521,8.07008547 C2.37128475,8.07008547 2.70678419,7.73458603 2.70678419,7.3207265 L2.70678419,3.83782051 C2.70678419,2.8525641 3.28798077,2.02029915 3.97580128,2.02029915 C4.65956197,2.02029915 5.23755342,2.84230769 5.24481838,3.81923077 L5.23285256,4.04444444 L5.23285256,12.8373932 C5.23285256,13.6901709 5.49973291,14.499359 5.98434829,15.1155983 C6.50315171,15.7752137 7.23798077,16.1534188 8.00080128,16.1534188 C8.76362179,16.1534188 9.49823718,15.7752137 10.0170406,15.1155983 C10.5014423,14.499359 10.7683226,13.6901709 10.7683226,12.8373932 L10.7683226,3.83782051 C10.7683226,2.8525641 11.3495192,2.02029915 12.0375534,2.02029915 C12.7255876,2.02029915 13.3065705,2.8525641 13.3065705,3.83782051 L13.3065705,6.87371795 L13.3078526,6.87371795 Z" id="形状"></path>
                <path d="M17.9753739,8.65149573 C17.5353997,8.65149571 17.178697,9.00810271 17.1785791,9.44807692 L17.1785791,10.6660256 C17.1785791,11.7130342 16.560844,12.5982906 15.8294338,12.5982906 C15.0980235,12.5982906 14.4800748,11.7134615 14.4800748,10.6660256 L14.4800748,9.94358974 C14.4847872,9.65585084 14.3339784,9.3879294 14.085545,9.24268238 C13.8371115,9.09743537 13.529662,9.09743537 13.2812285,9.24268238 C13.0327951,9.3879294 12.8819863,9.65585084 12.8866987,9.94358974 L12.8866987,10.666453 C12.8866987,11.5730769 13.1704594,12.4333333 13.685844,13.0884615 C14.2371261,13.7897436 15.0185363,14.192094 15.8294338,14.192094 C16.6403312,14.192094 17.4215278,13.7897436 17.9730235,13.0876068 C18.4881944,12.4324786 18.7719551,11.5722222 18.7719551,10.6655983 L18.7719551,9.44764957 C18.7719551,9.2363831 18.6880299,9.03376956 18.5386419,8.88438161 C18.3892539,8.73499365 18.1866404,8.65106838 17.9753739,8.65106838 L17.9753739,8.65149573 Z M17.9753739,5.44636752 C17.7640704,5.44631084 17.561402,5.5302111 17.4119678,5.67960519 C17.2625337,5.82899929 17.1785791,6.03164522 17.1785791,6.24294872 L17.1785791,7.43782051 C17.1738666,7.72555941 17.3246754,7.99348086 17.5731089,8.13872788 C17.8215423,8.2839749 18.1289918,8.2839749 18.3774253,8.13872788 C18.6258588,7.99348086 18.7766676,7.72555941 18.7719551,7.43782051 L18.7719551,6.24230769 C18.7719551,5.80236805 18.4153136,5.4457265 17.9753739,5.4457265 L17.9753739,5.44636752 Z M1.95849359,8.15170938 C2.38103779,8.15162297 2.76202362,8.40609095 2.92378418,8.79644609 C3.08554473,9.18680122 2.99622097,9.63616235 2.69746765,9.93497678 C2.39871434,10.2337912 1.9493715,10.3232069 1.55898328,10.1615262 C1.16859506,9.9998455 0.914049145,9.61891173 0.914049145,9.19636752 C0.914049145,8.61950221 1.38162829,8.15182739 1.95849359,8.15170938 M1.95849359,7.2525641 C0.884606576,7.2525641 0.0140491452,8.12312153 0.0140491452,9.19700855 C0.0140491452,10.2708956 0.884606576,11.141453 1.95849359,11.141453 C3.0323806,11.141453 3.90293803,10.2708956 3.90293803,9.19700855 C3.90211318,8.12346338 3.03203875,7.25338896 1.95849359,7.2525641" id="形状"></path>
            </g>
        </g>
    </g>
</svg>