<?xml version="1.0" encoding="utf-8"?>
<!-- Generator: Adobe Illustrator 23.0.1, SVG Export Plug-In . SVG Version: 6.00 Build 0)  -->
<svg version="1.1" id="图层_1" xmlns="http://www.w3.org/2000/svg" xmlns:xlink="http://www.w3.org/1999/xlink" x="0px" y="0px"
	 viewBox="0 0 18 18" style="enable-background:new 0 0 18 18;" xml:space="preserve">
<style type="text/css">
	.st0{fill:#FF7B7B;}
</style>
<title>删除</title>
<desc>Created with Sketch.</desc>
<g id="页面-1">
	<g id="删除_export">
		<g id="删除" transform="translate(1.500000, 1.500000)">
			<g id="删除标">
				<path id="形状" class="st0" d="M11.6,12.5c0,0.5-0.4,0.9-0.9,0.9H4.2c-0.5,0-0.9-0.4-0.9-0.9V2.9h8.3L11.6,12.5L11.6,12.5z
					 M5.1,1.3c0-0.1,0.1-0.2,0.2-0.2h4.4c0.1,0,0.2,0.1,0.2,0.2v0.5H5.1V1.3z M14.3,1.8h-3.4V1.3c0-0.7-0.6-1.3-1.3-1.3H5.3
					C4.6,0,4,0.6,4,1.3v0.5H0.5C0.2,1.8,0,2,0,2.4s0.2,0.5,0.5,0.5h1.6v9.6c0,1.1,0.9,2,2,2h6.5c1.1,0,2-0.9,2-2V2.9h1.6
					c0.3,0,0.5-0.2,0.5-0.5S14.6,1.8,14.3,1.8z M7.4,11.7c0.3,0,0.5-0.2,0.5-0.5V5.4c0-0.3-0.2-0.5-0.5-0.5S6.9,5.1,6.9,5.4v5.8
					C6.9,11.5,7.1,11.7,7.4,11.7 M4.9,11.7c0.3,0,0.5-0.2,0.5-0.5V5.4c0-0.3-0.2-0.5-0.5-0.5c-0.3,0-0.5,0.2-0.5,0.5v5.8
					C4.4,11.5,4.6,11.7,4.9,11.7 M10,11.7c0.3,0,0.5-0.2,0.5-0.5V5.4c0-0.3-0.2-0.5-0.5-0.5S9.4,5.1,9.4,5.4v5.8
					C9.4,11.5,9.7,11.7,10,11.7"/>
			</g>
		</g>
	</g>
</g>
</svg>
