<?xml version="1.0" encoding="UTF-8"?>
<svg width="16px" height="16px" viewBox="0 0 16 16" version="1.1" xmlns="http://www.w3.org/2000/svg" xmlns:xlink="http://www.w3.org/1999/xlink">
    <!-- Generator: Sketch 63 (92445) - https://sketch.com -->
    <title>编组</title>
    <desc>Created with Sketch.</desc>
    <g id="页面-1" stroke="none" stroke-width="1" fill="none" fill-rule="evenodd">
        <g id="常用地点" transform="translate(-256.000000, -34.000000)" fill="#B4B7BE" fill-rule="nonzero" stroke="#B4B7BE" stroke-width="0.4">
            <g id="编组_export" transform="translate(256.000000, 34.000000)">
                <g id="编组" transform="translate(1.000000, 1.000000)">
                    <path d="M6.36750304,12.9114378 C9.88700497,12.9114378 12.7350061,10.018395 12.7350061,6.45571887 C12.7350061,2.89304272 9.88700497,0 6.36750304,0 C2.84800111,0 0,2.89304272 0,6.45571887 C0,10.018395 2.84800111,12.9114378 6.36750304,12.9114378 L6.36750304,12.9114378 Z M6.36750304,11.9624062 C3.38320902,11.9624062 0.958841789,9.49969726 0.958841789,6.45571887 C0.958841789,3.4117405 3.38320902,0.949031522 6.36750304,0.949031522 C9.35179706,0.949031522 11.7761643,3.4117405 11.7761643,6.45571887 C11.7761643,9.49969726 9.35179706,11.9624062 6.36750304,11.9624062 Z M11.1103208,11.7570611 L13.1772034,13.8566318 C13.3619818,14.0443325 13.6655088,14.0482341 13.8551498,13.8653462 C14.0447908,13.6824583 14.0487327,13.3820369 13.8639543,13.1943362 L11.7970717,11.0947655 C11.6122933,10.9070648 11.3087663,10.9031632 11.1191253,11.0860511 C10.9294843,11.268939 10.9255424,11.5693604 11.1103208,11.7570611 Z M4.48216801,8.96922738 C4.02926168,8.62269467 3.70238492,8.2138662 3.48319219,7.75281906 C3.14519453,7.04187923 3.08493573,6.27656753 3.18704026,5.59306854 C3.20228802,5.49099815 3.21672663,5.42172526 3.22457642,5.39150675 C3.29050885,5.13769394 3.13607481,4.87903603 2.87963829,4.81377816 C2.62320175,4.74852026 2.36187006,4.90137427 2.29593762,5.15518708 C2.2800466,5.2163609 2.258874,5.3179421 2.23851057,5.45425706 C2.11115201,6.30680944 2.18560926,7.25244709 2.61560458,8.15689364 C2.89852644,8.75198777 3.32087223,9.28022046 3.89573792,9.72006806 C4.10522012,9.88034938 4.40631586,9.84220169 4.56825407,9.63486277 C4.73019228,9.42752384 4.69165024,9.12950874 4.48216801,8.96922738 L4.48216801,8.96922738 Z" id="形状"></path>
                </g>
            </g>
        </g>
    </g>
</svg>