<?xml version="1.0" standalone="no"?><!DOCTYPE svg PUBLIC "-//W3C//DTD SVG 1.1//EN" "http://www.w3.org/Graphics/SVG/1.1/DTD/svg11.dtd"><svg t="1606801185045" class="icon" viewBox="0 0 1024 1024" version="1.1" xmlns="http://www.w3.org/2000/svg" p-id="7753" xmlns:xlink="http://www.w3.org/1999/xlink" width="16" height="16"><defs><style type="text/css"></style></defs><path d="M807.95648 70.82496H216.04352c-80.07168 0-145.21856 65.14688-145.21856 145.21856v591.872c0 80.10752 65.14688 145.2544 145.21856 145.2544h591.90784c80.07168 0 145.21344-65.14688 145.21344-145.2544v-591.872c0.00512-80.06656-65.14176-145.21856-145.20832-145.21856zM348.16 487.95648H115.31264V324.64896H348.16v163.30752z m45.69088-166.90176H910.08v170.496H393.85088v-170.496z m-281.09824 213.10976H345.6v167.08096H112.75264v-167.08096z m282.3936-2.96448h513.63328v173.00992H395.14624V531.2z m511.28832-315.94496v63.71328H392.35072V113.50528c0-0.94208-0.38912-1.75616-0.53248-2.65728h410.20928c57.58976 0 104.40704 46.82752 104.40704 104.40704zM216.84224 114.00192h130.85184c-0.13824 0.8704-0.512 1.65376-0.512 2.55488V275.8144H116.352V214.49216c0-55.41888 45.06624-100.49024 100.49024-100.49024zM114.03264 809.0624v-62.54592h230.31808v162.57024c0 0.94208 0.384 1.7408 0.52224 2.60608H216.63232c-56.58624-0.00512-102.59968-46.00832-102.59968-102.6304z m689.40288 104.8576H394.57792c0.13824-0.91136 0.53248-1.73056 0.53248-2.67264v-166.95808H908.8v64.23552c0 58.14272-47.25248 105.3952-105.36448 105.3952z" fill="#707070" p-id="7754"></path><path d="M629.3248 110.848h43.54048V913.92h-43.54048z" fill="#707070" p-id="7755"></path></svg>