<?xml version="1.0" standalone="no"?>
<!DOCTYPE svg PUBLIC "-//W3C//DTD SVG 1.1//EN" "http://www.w3.org/Graphics/SVG/1.1/DTD/svg11.dtd">
<svg t="1606439177859" class="icon" viewBox="0 0 1024 1024" version="1.1" xmlns="http://www.w3.org/2000/svg" p-id="1150" width="20" height="20" xmlns:xlink="http://www.w3.org/1999/xlink">
	<defs>
		<style type="text/css">
		</style>
	</defs>
	<path d="M885.68 175.66H474.94c-5.3 0-9.74 3.68-10.91 8.63l-0.3 2.57v61.98c0 5.3 3.68 9.74 8.63 10.91l2.57 0.3h410.73c5.3 0 9.74-3.68 10.91-8.63l0.3-2.57v-61.98c0-5.3-3.68-9.75-8.63-10.91l-2.56-0.3z m-681.45-20.9c-42.27 0-76.55 34.27-76.55 76.55s34.27 76.55 76.55 76.55 76.55-34.27 76.55-76.55-34.27-76.55-76.55-76.55z m681.45-42.57c41.24 0 74.68 33.43 74.68 74.68v61.98c0 41.24-33.43 74.68-74.68 74.68H474.94c-41.24 0-74.68-33.43-74.68-74.68v-61.98c0-41.24 33.43-74.68 74.68-74.68h410.74z m0 368.98H474.94c-5.3 0-9.74 3.68-10.91 8.63l-0.3 2.57v61.98c0 5.3 3.68 9.74 8.63 10.91l2.57 0.3h410.73c5.3 0 9.74-3.68 10.91-8.63l0.3-2.57v-61.98c0-5.3-3.68-9.75-8.63-10.91l-2.56-0.3z m0 306.1H474.94c-5.3 0-9.74 3.68-10.91 8.63l-0.3 2.57v61.98c0 5.3 3.68 9.74 8.63 10.91l2.57 0.3h410.73c5.3 0 9.74-3.68 10.91-8.63l0.3-2.57v-61.98c0-5.3-3.68-9.74-8.63-10.91l-2.56-0.3z m-650.98 10.4h165.6l0.17-4.77c2.85-38.64 35.1-69.11 74.47-69.11h410.73c41.24 0 74.68 33.43 74.68 74.68v61.98c0 41.24-33.43 74.68-74.68 74.68H474.94c-41 0-74.29-33.05-74.68-73.96H171.25l-0.02-493.75C109.82 352.59 64.2 297.27 64.2 231.31c0-77.33 62.69-140.02 140.02-140.02s140.02 62.69 140.02 140.02c0 66.86-46.86 122.78-109.53 136.69l-0.02 123.6h165.6l0.17-4.81c2.85-38.64 35.1-69.1 74.47-69.1h410.73c41.24 0 74.68 33.43 74.68 74.68v61.98c0 41.24-33.43 74.68-74.68 74.68H474.94c-40.99 0-74.27-33.03-74.67-73.92l-165.57-0.02v242.58z" p-id="1151" fill="#004ec3">
	</path>
</svg>
