<?xml version="1.0" standalone="no"?><!DOCTYPE svg PUBLIC "-//W3C//DTD SVG 1.1//EN" "http://www.w3.org/Graphics/SVG/1.1/DTD/svg11.dtd"><svg t="1606801257387" class="icon" viewBox="0 0 1024 1024" version="1.1" xmlns="http://www.w3.org/2000/svg" p-id="9244" xmlns:xlink="http://www.w3.org/1999/xlink" width="16" height="16"><defs><style type="text/css"></style></defs><path d="M494.421875 458.9140625c-7.3828125 9.75585938-17.9296875 17.13867188-30.5859375 20.47851563-65.91796875 17.40234375-185.53710938 39.81445313-245.47851563-5.36132813C139.87109375 414.79296875 124.2265625 302.8203125 183.46484375 224.33398437S354.67578125 130.203125 433.16210937 189.44140625c59.94140625 45.26367188 71.10351563 166.37695313 72.42187501 234.58007813 0.3515625 12.91992188-3.77929688 25.04882813-11.16210938 34.89257812zM230.92578125 260.01757812c-39.46289063 52.29492188-29.09179688 127.00195313 23.29101563 166.46484376 27.59765625 20.83007813 102.74414063 19.24804688 191.95312499-3.95507813-2.109375-92.19726563-21.18164063-164.8828125-48.77929687-185.71289063-52.29492188-39.55078125-126.9140625-29.09179688-166.46484375 23.20312501zM519.55859375 423.93359375c1.31835938-68.203125 12.56835938-189.31640625 72.421875-234.58007813 78.48632813-59.23828125 190.45898438-43.59375 249.69726563 34.89257813s43.59375 190.45898438-34.89257813 249.69726563c-59.94140625 45.26367188-179.47265625 22.76367188-245.47851563 5.36132812-12.56835938-3.33984375-23.203125-10.63476563-30.58593749-20.47851563-7.29492188-9.75585938-11.42578125-21.88476563-11.16210938-34.89257812z m108.19335938-187.20703125c-27.59765625 20.83007813-46.66992188 93.60351563-48.77929688 185.71289063 89.20898438 23.203125 164.44335938 24.78515625 191.953125 3.95507812 52.29492188-39.46289063 62.75390625-114.16992188 23.29101563-166.46484375s-114.08203125-62.66601563-166.46484376-23.203125zM505.671875 601.91210938c-1.31835938 68.203125-12.56835938 189.31640625-72.421875 234.58007812-78.48632813 59.23828125-190.45898438 43.59375-249.69726563-34.89257813S139.95898437 611.140625 218.4453125 551.90234375c59.94140625-45.26367188 179.47265625-22.76367188 245.47851563-5.36132813 12.56835938 3.33984375 23.203125 10.63476563 30.58593749 20.47851563 7.29492188 9.75585938 11.42578125 21.88476563 11.16210938 34.89257813z m-108.19335938 187.20703124c27.59765625-20.83007813 46.66992188-93.60351563 48.77929688-185.71289062-89.20898438-23.203125-164.44335938-24.78515625-191.953125-3.95507813-52.29492188 39.46289063-62.75390625 114.16992188-23.29101563 166.46484376 39.46289063 52.20703125 114.08203125 62.66601563 166.46484376 23.20312499zM530.80859375 566.93164063c7.3828125-9.75585938 17.9296875-17.13867188 30.5859375-20.47851563 65.91796875-17.40234375 185.53710938-39.81445313 245.47851563 5.36132813 78.48632813 59.23828125 94.13085938 171.2109375 34.89257812 249.69726562S670.46679688 895.73046875 591.98046875 836.4921875c-59.94140625-45.26367188-71.10351563-166.37695313-72.421875-234.58007813-0.26367188-13.0078125 3.8671875-25.13671875 11.25-34.98046874z m263.49609375 198.89648437c39.46289063-52.29492188 29.09179688-127.00195313-23.29101563-166.46484375-27.59765625-20.83007813-102.74414063-19.24804688-191.95312499 3.95507813 2.109375 92.19726563 21.18164063 164.8828125 48.77929687 185.71289062 52.29492188 39.55078125 126.9140625 29.09179688 166.46484375-23.203125z" fill="#707070" p-id="9245"></path></svg>