<?xml version="1.0" standalone="no"?>
<!DOCTYPE svg PUBLIC "-//W3C//DTD SVG 1.1//EN" "http://www.w3.org/Graphics/SVG/1.1/DTD/svg11.dtd">
<svg t="1606566564931" class="icon" viewBox="0 0 1024 1024" version="1.1" xmlns="http://www.w3.org/2000/svg" p-id="4528" xmlns:xlink="http://www.w3.org/1999/xlink" width="16" height="16">
	<defs>
		<style type="text/css">
		</style>
	</defs>
	<path d="M661.9136 389.3248c67.072 0 131.6864 24.6784 181.6576 69.4272 107.7248 96.3584 121.4464 260.4032 31.232 373.3504-7.3728 9.216-11.1616 20.1728-11.5712 31.232-11.0592 0.4096-22.016 4.3008-31.232 11.5712-24.576 19.6608-51.9168 34.7136-81.408 44.8512-28.4672 9.8304-58.368 14.7456-88.6784 14.7456-38.0928 0-74.9568-7.68-109.7728-22.9376-35.84-15.6672-67.2768-38.6048-93.5936-67.8912C362.1888 735.9488 366.6944 571.392 468.992 469.1968c26.0096-26.0096 56.32-46.08 90.0096-59.8016 32.8704-13.4144 67.4816-20.0704 102.912-20.0704m0-53.248c-83.5584 0-167.0144 31.9488-230.5024 95.4368C309.248 553.7792 303.7184 750.2848 419.0208 879.104c64.2048 71.7824 153.2928 108.6464 242.9952 108.6464 71.4752 0 143.36-23.4496 203.264-71.2704l96.768 96.8704c7.0656 7.0656 16.384 10.6496 25.6 10.6496s18.5344-3.584 25.6-10.6496c14.1312-14.1312 14.1312-37.0688 0-51.3024L916.48 865.28c107.9296-135.0656 91.5456-330.9568-37.376-446.2592-61.952-55.5008-139.6736-82.944-217.1904-82.944zM383.3856 371.9168H36.0448C16.1792 371.9168 0 355.7376 0 335.872c0-19.8656 16.1792-36.0448 36.0448-36.0448h347.3408c19.8656 0 36.0448 16.1792 36.0448 36.0448 0 19.8656-16.0768 36.0448-36.0448 36.0448zM987.9552 72.0896H36.0448C16.0768 72.0896 0 55.9104 0 36.0448 0 16.1792 16.0768 0 36.0448 0h951.9104c19.8656 0 36.0448 16.1792 36.0448 36.0448 0 19.8656-16.1792 36.0448-36.0448 36.0448zM205.2096 709.4272H36.0448C16.1792 709.4272 0 693.3504 0 673.3824c0-19.8656 16.1792-36.0448 36.0448-36.0448h169.1648c19.8656 0 36.0448 16.1792 36.0448 36.0448 0 19.968-16.1792 36.0448-36.0448 36.0448zM368.7424 1024H36.0448C16.1792 1024 0 1007.8208 0 987.9552c0-19.8656 16.1792-36.0448 36.0448-36.0448h332.6976c19.8656 0 36.0448 16.1792 36.0448 36.0448 0 19.8656-16.1792 36.0448-36.0448 36.0448z" fill='rgb(45, 17, 255)' p-id="4529">
	</path>
</svg>
