<?xml version="1.0" encoding="UTF-8"?>
<svg width="18px" height="18px" viewBox="0 0 18 18" version="1.1" xmlns="http://www.w3.org/2000/svg" xmlns:xlink="http://www.w3.org/1999/xlink">
    <!-- Generator: Sketch 63 (92445) - https://sketch.com -->
    <title>浮标灰</title>
    <desc>Created with Sketch.</desc>
    <g id="页面-1" stroke="none" stroke-width="1" fill="none" fill-rule="evenodd">
        <g id="画板" transform="translate(-202.000000, -493.000000)" fill="#971A00" fill-rule="nonzero">
            <g id="浮标灰_export备份" transform="translate(202.000000, 493.000000)">
                <g id="浮标灰" transform="translate(1.000000, 2.000000)">
                    <path d="M15.9071924,11.9857085 C15.7498777,11.7791198 15.4555348,11.7382014 15.2479262,11.89406 C14.6512706,12.3427407 13.9475819,12.6271278 13.2069481,12.7188963 C13.9576513,12.1070755 14.3945431,11.1904457 14.3972898,10.2214753 C14.3967848,9.97938237 14.2005669,9.78339558 13.9586946,9.78339558 L2.04337444,9.78339558 C1.80150216,9.78339558 1.60528425,9.97938237 1.6047793,10.2214753 C1.60664164,11.1490768 2.00688999,12.0310961 2.70355624,12.6428281 C2.00729419,12.4850904 1.33850127,12.2240628 0.719348225,11.8683984 C0.498610996,11.7309759 0.208366882,11.7986793 0.0710698453,12.0196184 C-0.0662271913,12.2405575 0.0014144425,12.5310671 0.222151664,12.6684896 C1.31068029,13.3121383 2.54333711,13.6717162 3.80691141,13.7141988 C4.29567713,13.7171714 4.78192043,13.6438899 5.24814049,13.4969919 C7.56381288,12.7528062 8.68914358,12.8325404 9.77327017,13.2073827 C10.7905545,13.5299853 13.4972083,14.3878151 15.8110494,12.6446611 C16.0188362,12.4889355 16.0618088,12.1944065 15.9071924,11.9857085 L15.9071924,11.9857085 Z M9.81355865,9.10428035 L9.81355865,5.34119385 L6.05391025,5.34119385 L6.05391025,9.10428035 L9.81355865,9.10428035 Z M5.1346002,4.58692689 L10.8711315,4.58692689 C11.1011676,4.61195401 11.3095083,4.44967291 11.3417742,4.22033297 L11.3417742,2.32870839 C11.3095083,2.09936844 11.1011676,1.93708735 10.8711315,1.96211447 L9.34108457,1.96211447 L9.34108457,1.17668702 C9.34108458,1.00838878 9.25138058,0.852874781 9.10576319,0.768725657 C8.9601458,0.684576532 8.78073777,0.684576532 8.63512038,0.768725657 C8.48950299,0.852874781 8.39979899,1.00838878 8.399799,1.17668702 L8.399799,1.96211447 L7.43287529,1.96211447 L7.43287529,0.470993741 C7.43283146,0.210858234 7.22213035,0 6.96223251,0 C6.70233467,0 6.49163355,0.210858234 6.49158972,0.470993741 L6.49158972,1.96211447 L5.13368456,1.96211447 C4.90364842,1.93708735 4.69530774,2.09936844 4.66304177,2.32870839 L4.66304177,4.22033297 C4.69530774,4.44967291 4.90364842,4.61195401 5.13368456,4.58692689 L5.1346002,4.58692689 Z" id="形状"></path>
                </g>
            </g>
        </g>
    </g>
</svg>