<?xml version="1.0" encoding="utf-8"?>
<!-- Generator: Adobe Illustrator 23.0.1, SVG Export Plug-In . SVG Version: 6.00 Build 0)  -->
<svg version="1.1" id="图层_1" xmlns="http://www.w3.org/2000/svg" xmlns:xlink="http://www.w3.org/1999/xlink" x="0px" y="0px"
	 viewBox="0 0 36 36" style="enable-background:new 0 0 36 36;" xml:space="preserve">
<style type="text/css">
	.st0{fill:#FFFFFF;}
</style>
<title>编组</title>
<desc>Created with Sketch.</desc>
<g id="页面-1">
	<g id="常用地点" transform="translate(-899.000000, -803.000000)">
		<g id="编组_export" transform="translate(899.000000, 803.000000)">
			<g id="编组" transform="translate(4.500000, 4.500000)">
				<path id="路径" class="st0" d="M9.5,21.2H7.7c-0.2-0.4-0.5-0.7-0.9-0.9V8.7c0.4-0.2,0.7-0.5,0.9-0.9h11.6c0.3,0.6,0.9,1,1.6,1
					c0.9,0,1.7-0.7,1.7-1.7c0-0.9-0.7-1.7-1.7-1.7c-0.7,0-1.3,0.4-1.6,1H7.7c-0.3-0.6-0.9-1-1.6-1c-0.9,0-1.7,0.7-1.7,1.7
					c0,0.7,0.4,1.3,1,1.6v11.6c-0.6,0.3-1,0.8-1,1.6c0,0.9,0.7,1.7,1.7,1.7c0.7,0,1.3-0.4,1.6-1h1.8c0.4,0,0.6-0.3,0.6-0.6
					C10.1,21.5,9.8,21.2,9.5,21.2z"/>
				<path id="形状" class="st0" d="M11.2,22.1c-0.1,0.2,0.2,0.5,0.4,0.4l2.7-0.7L12,19.5L11.2,22.1L11.2,22.1z M21.1,11.3
					c-0.3-0.3-0.8-0.3-1.1,0l-1.1,1.1l2.3,2.3l1.1-1.1c0.3-0.3,0.3-0.8,0-1.1L21.1,11.3z M12.7,18.6l2.2,2.3l5.6-5.5l-2.3-2.3
					L12.7,18.6z"/>
			</g>
		</g>
	</g>
</g>
</svg>
