<?xml version="1.0" encoding="UTF-8"?>
<svg width="36px" height="36px" viewBox="0 0 36 36" version="1.1" xmlns="http://www.w3.org/2000/svg" xmlns:xlink="http://www.w3.org/1999/xlink">
    <!-- Generator: Sketch 63 (92445) - https://sketch.com -->
    <title>相对湿度标</title>
    <desc>Created with Sketch.</desc>
    <g id="页面-1" stroke="none" stroke-width="1" fill="none" fill-rule="evenodd">
        <g id="XX船舰切图" transform="translate(-201.000000, -218.000000)">
            <g id="降水标_export" transform="translate(201.000000, 218.000000)">
                <g id="降水标" transform="translate(7.200000, 0.600000)">
                    <path d="M10.8,0.72 C10.273729,0.72 9.49632556,1.83063587 8.56245991,3.17085594 C7.32475099,4.94713107 5.91724869,7.42550556 4.63773767,10.0868885 C2.51225963,14.5078828 0.72,19.4385296 0.72,22.464 C0.72,25.6154874 1.8554802,28.4714096 3.70032188,30.5376323 C5.51728796,32.5726343 8.02490173,33.84 10.8,33.84 C13.5750983,33.84 16.082712,32.5726343 17.8996781,30.5376323 C19.7445198,28.4714096 20.88,25.6154874 20.88,22.464 C20.88,19.4385296 19.0877404,14.5078828 16.9622623,10.0868885 C15.6827513,7.42550556 14.275249,4.94713107 13.0375401,3.17085594 C12.1036744,1.83063587 11.326271,0.72 10.8,0.72 Z" id="椭圆形" stroke="#FFFFFF" stroke-width="1.44"></path>
                    <path d="M10.1183825,31.104 C14.0736346,31.104 17.28,26.8363969 17.28,21.5720416 C17.28,19.0571089 15.0695942,19.0571089 11.7651705,18.4802285 C9.36338538,18.060929 7.98173388,14.2416633 6.7218442,13.8397478 C5.84400584,13.55971 3.456,17.0442752 3.456,21.917882 C3.456,26.7914887 6.16313039,31.104 10.1183825,31.104 Z" id="椭圆形" fill="#FFFFFF"></path>
                </g>
            </g>
        </g>
    </g>
</svg>