<?xml version="1.0" encoding="utf-8"?>
<!-- Generator: Adobe Illustrator 23.0.1, SVG Export Plug-In . SVG Version: 6.00 Build 0)  -->
<svg version="1.1" id="图层_1" xmlns="http://www.w3.org/2000/svg" xmlns:xlink="http://www.w3.org/1999/xlink" x="0px" y="0px"
	 viewBox="0 0 36 36" style="enable-background:new 0 0 36 36;" xml:space="preserve">
<style type="text/css">
	.st0{fill:#12482C;stroke:#12482C;stroke-width:0.5;stroke-miterlimit:10;}
</style>
<title>经纬度</title>
<desc>Created with Sketch.</desc>
<g id="页面-1">
	<g id="常用地点" transform="translate(-787.000000, -804.000000)">
		<g id="经纬度_export" transform="translate(787.000000, 804.000000)">
			<g id="经纬度" transform="translate(2.000000, 2.000000)">
				<path id="形状" class="st0" d="M15.9,29C9,29,3.4,23.4,3.4,16.4S9,3.9,15.9,3.9s12.5,5.6,12.5,12.5S22.9,29,15.9,29z
					 M15.9,5.8c-5.9,0-10.6,4.7-10.6,10.6S10.1,27,15.9,27s10.6-4.7,10.6-10.6S21.8,5.8,15.9,5.8z"/>
				<path class="st0" d="M15.9,0c0.6,0,1,0.4,1,1v9.7c0,0.6-0.4,1-1,1s-1-0.4-1-1V1C15,0.4,15.4,0,15.9,0z M15.9,20.3
					c0.6,0,1,0.4,1,1v9.7c0,0.6-0.4,1-1,1s-1-0.4-1-1v-9.7C15,20.7,15.4,20.3,15.9,20.3z M31.9,15.9c0,0.6-0.4,1-1,1h-9.7
					c-0.6,0-1-0.4-1-1c0-0.6,0.4-1,1-1h9.7C31.5,15,31.9,15.3,31.9,15.9z M11.6,15.9c0,0.6-0.4,1-1,1H1c-0.6,0-1-0.4-1-1
					c0-0.6,0.4-1,1-1h9.7C11.2,15,11.6,15.3,11.6,15.9z"/>
				<path id="路径" class="st0" d="M13.9,16.7c0,1.1,0.9,1.9,1.9,1.9s1.9-0.9,1.9-1.9s-0.9-1.9-1.9-1.9S13.9,15.6,13.9,16.7
					L13.9,16.7z"/>
			</g>
		</g>
	</g>
</g>
</svg>
