<?xml version="1.0" encoding="UTF-8"?>
<svg width="36px" height="36px" viewBox="0 0 36 36" version="1.1" xmlns="http://www.w3.org/2000/svg" xmlns:xlink="http://www.w3.org/1999/xlink">
    <!-- Generator: Sketch 63 (92445) - https://sketch.com -->
    <title>经纬度</title>
    <desc>Created with Sketch.</desc>
    <g id="页面-1" stroke="none" stroke-width="1" fill="none" fill-rule="evenodd">
        <g id="常用地点" transform="translate(-787.000000, -804.000000)" fill="#FFFFFF" fill-rule="nonzero" stroke="#FFFFFF" stroke-width="0.4">
            <g id="经纬度_export" transform="translate(787.000000, 804.000000)">
                <g id="经纬度" transform="translate(2.000000, 2.000000)">
                    <path d="M15.9440854,-1.49213975e-13 C16.5232876,-1.49213975e-13 16.9094223,0.386134764 16.9094223,0.965336926 L16.9098881,3.897647 C22.9253644,4.35169669 27.7330185,9.01361132 28.411425,14.9619654 L30.9068078,14.9627224 C31.4860099,14.9627224 31.8721447,15.3488571 31.8721447,15.9280593 C31.8721447,16.5072615 31.48601,16.8933962 30.9068078,16.8933962 L28.484425,16.8936506 C28.244256,23.2966915 23.2473671,28.445454 16.9098881,28.9238085 L16.9094223,30.8907817 C16.9094223,31.4699838 16.5232876,31.8561186 15.9440854,31.8561186 C15.3648833,31.8561186 14.9787485,31.4699838 14.9787485,30.8907817 L14.9782827,28.9238085 C8.64080374,28.445454 3.64391485,23.2966914 3.4037458,16.8936506 L0.981363043,16.8933962 C0.402160881,16.8933962 0.0160261164,16.5072615 0.0160261164,15.9280593 C0.0160261164,15.3488571 0.402160881,14.9627224 0.981363043,14.9627224 L3.47674576,14.9619654 C4.15515234,9.01361134 8.96280648,4.35169669 14.9782827,3.897647 L14.9787485,0.965336926 C14.9787485,0.386134764 15.3648832,-1.49213975e-13 15.9440854,-1.49213975e-13 Z M16.9094939,5.83478904 L16.9094223,10.6187062 C16.9094223,11.1979084 16.5232876,11.5840431 15.9440854,11.5840431 C15.3648833,11.5840431 14.9787485,11.1979084 14.9787485,10.6187062 L14.9780498,5.83484492 C10.0267384,6.27612935 6.08107282,10.0788924 5.42224012,14.9619471 L10.6347323,14.9627224 C11.2139345,14.9627224 11.6000692,15.3488571 11.6000692,15.9280593 C11.6000692,16.5072615 11.2139345,16.8933962 10.6347323,16.8933962 L5.33601693,16.8933897 C5.57194308,22.2335436 9.70462107,26.5166176 14.9780498,26.9866106 L14.9787485,21.2374124 C14.9787485,20.6582103 15.3648832,20.2720755 15.9440854,20.2720755 C16.5232876,20.2720755 16.9094223,20.6582103 16.9094223,21.2374124 L16.9094939,26.9866665 C22.1832221,26.5169571 26.3162184,22.2337552 26.5521539,16.8933897 L21.2534385,16.8933962 C20.6742363,16.8933962 20.2881016,16.5072615 20.2881016,15.9280593 C20.2881016,15.3488571 20.6742363,14.9627224 21.2534385,14.9627224 L26.4659307,14.9619471 C25.8070702,10.0786863 21.8610993,6.27580826 16.9094939,5.83478904 Z M15.8793918,13.7692308 C16.9456736,13.7692308 17.8100657,14.6336229 17.8100657,15.6999046 C17.8100657,16.7661864 16.9456736,17.6305785 15.8793918,17.6305785 C14.8131101,17.6305785 13.9487179,16.7661864 13.9487179,15.6999046 C13.9487179,14.6336229 14.8131101,13.7692308 15.8793918,13.7692308 Z" id="形状结合"></path>
                </g>
            </g>
        </g>
    </g>
</svg>