<?xml version="1.0" encoding="UTF-8"?>
<svg width="18px" height="18px" viewBox="0 0 18 18" version="1.1" xmlns="http://www.w3.org/2000/svg" xmlns:xlink="http://www.w3.org/1999/xlink">
    <!-- Generator: Sketch 63 (92445) - https://sketch.com -->
    <title>海洋灰1</title>
    <desc>Created with Sketch.</desc>
    <g id="页面-1" stroke="none" stroke-width="1" fill="none" fill-rule="evenodd">
        <g id="画板" transform="translate(-202.000000, -513.000000)" fill="#971A00" fill-rule="nonzero">
            <g id="海洋灰_export备份" transform="translate(202.000000, 513.000000)">
                <g id="海洋灰" transform="translate(2.500000, 2.500000)">
                    <path d="M12.5326674,6.61899212 L11.6766406,6.61899212 C11.4179464,6.61899212 11.209308,6.39801147 11.209308,6.12305525 C11.209308,5.84809902 11.4179464,5.62697328 11.6766406,5.62697328 L12.5326674,5.62697328 C12.78875,5.62697328 13,5.84737354 13,6.12305525 C13,6.39873695 12.7913616,6.61899212 12.5326674,6.61899212 Z M10.6465067,3.10347002 C10.4554414,3.28626518 10.1543465,3.28626518 9.96328125,3.10347002 C9.78019992,2.9276483 9.77428897,2.6366999 9.95007812,2.45358668 L9.96066964,2.4429947 L10.5120089,1.90541538 C10.704236,1.72243823 11.0061993,1.72243823 11.1984263,1.90541538 C11.2860882,1.99093696 11.3361674,2.10779449 11.3376369,2.23025696 C11.3391064,2.35271944 11.2918457,2.4707451 11.2062612,2.55834573 L11.1984263,2.56618089 L10.6470871,3.10303473 L10.6465067,3.10347002 Z M10.646942,7.70459765 L10.5683036,7.90352377 L10.5611942,7.90163752 C10.5221652,8.00102803 10.4832813,8.10056364 10.4351116,8.19676204 L10.4220536,8.19676204 C10.2973577,8.46872394 10.1166498,8.71129344 9.89175223,8.90860122 C10.26637,8.80004741 10.6264847,8.64658274 10.9642522,8.45154997 C11.1809288,8.32757025 11.3878013,8.18719155 11.583058,8.03164321 C11.6538616,7.97621668 11.7218601,7.91750131 11.7870536,7.85549711 C11.9560653,7.68657009 12.2287151,7.68252162 12.4026674,7.84635609 C12.4827936,7.92069662 12.5301026,8.02382737 12.5341842,8.13305479 C12.5382657,8.2422822 12.4987855,8.34865634 12.4244308,8.42876996 C12.4205134,8.43297773 12.4164509,8.43718551 12.4123884,8.44124818 C12.2205804,8.63233913 11.8793304,8.90468364 11.4069196,9.17441642 C9.7811942,10.10535 7.90852679,10.2398537 5.97158482,9.0653045 C4.26330357,8.02961187 2.72941964,8.02961187 1.42477679,8.6400292 C1.25365304,8.7194045 1.08875191,8.81155917 0.931473214,8.9157109 C0.878255477,8.94943862 0.826824646,8.98590671 0.777388393,9.02496792 L0.769553571,9.0320776 C0.584356974,9.17526674 0.320026087,9.15114352 0.163805804,8.97679617 C0.0914593823,8.89516419 0.0545511474,8.78810757 0.0612194512,8.67923254 C0.067887755,8.57035751 0.117584947,8.4686057 0.199352679,8.39641363 C0.201674107,8.3942372 0.204140625,8.39220586 0.206752232,8.39002942 C0.366350446,8.25552577 0.65,8.06690145 1.04580357,7.88219471 C1.48462707,7.67820458 1.9493861,7.53545092 2.42705357,7.45793508 C2.28856261,7.04647667 2.21513436,6.61592356 2.20941964,6.18181898 C2.20941964,3.83446182 4.16594866,1.924568 6.57414063,1.924568 C8.98233259,1.924568 10.9413281,3.83446182 10.9413281,6.18181898 C10.9413281,6.69212032 10.8417969,7.20503339 10.6462165,7.70358198 L10.646942,7.70459765 Z M6.36347098,1.69081893 C6.09766741,1.69081893 5.88061384,1.47955969 5.87930804,1.22477176 L5.87727679,0.467372553 C5.8777208,0.342176075 5.92941941,0.222624361 6.02033482,0.136554508 C6.1124429,0.0478955687 6.23563392,-0.00112253601 6.36347098,1.95173687e-05 C6.62464869,-0.000783713175 6.83873696,0.207001776 6.84574777,0.468098031 L6.84777902,1.22477176 C6.8472208,1.34979723 6.79584027,1.46921899 6.70544643,1.5555898 C6.61346107,1.64355602 6.49073874,1.69208474 6.36347098,1.69081893 L6.36347098,1.69081893 Z M2.54210937,3.3134263 C2.41418547,3.31370772 2.29115359,3.26428471 2.19897321,3.17558255 L1.64516741,2.63800323 C1.55756534,2.55273941 1.50743092,2.43615961 1.50579825,2.31392194 C1.50416558,2.19168427 1.55116848,2.07380695 1.63646205,1.98623364 L1.64516741,1.97752791 C1.83718031,1.7947166 2.13884647,1.7947166 2.33085937,1.97752791 L2.88466518,2.51510723 C2.97226725,2.60037105 3.02240167,2.71695084 3.02403434,2.83918851 C3.02566701,2.96142619 2.97866411,3.07930351 2.89337054,3.16687681 L2.88466518,3.17558255 C2.79279842,3.26440615 2.66989141,3.31386264 2.54210937,3.3134263 L2.54210937,3.3134263 Z M1.79069196,6.12305525 C1.79069196,6.39873695 1.58277902,6.61913722 1.32335938,6.61913722 L0.467332589,6.61913722 C0.208638393,6.61899212 0,6.39873695 0,6.12305525 C0,5.84737354 0.208058036,5.6271183 0.467332589,5.6271183 L1.32335938,5.6271183 C1.58016741,5.62697328 1.79069196,5.84737354 1.79069196,6.12305525 L1.79069196,6.12305525 Z M11.4069196,10.695599 C9.7811942,11.6258071 7.90852679,11.7603108 5.97158482,10.586342 C4.26330357,9.55079449 2.72941964,9.55079449 1.42477679,10.1617922 C1.25369592,10.2409745 1.08879835,10.3328846 0.931473214,10.4367484 C0.878370536,10.4711845 0.827008929,10.5080388 0.777388393,10.5473113 C0.658815071,10.648348 0.496097623,10.6801448 0.348214286,10.6311766 C0.201352894,10.5850433 0.0911199167,10.4628038 0.0603571429,10.3119662 C0.0313524396,10.1620891 0.0876400418,10.0084641 0.206607143,9.9128081 C0.366205357,9.77830444 0.649854911,9.58982522 1.04565848,9.40497338 C2.60507813,8.67427177 4.4552567,8.67427177 6.43354911,9.87435775 C8.06696429,10.8643453 9.59649554,10.7545079 10.9633817,9.9724424 C11.1804009,9.84886079 11.3875299,9.70866665 11.5829129,9.55311602 C11.6537165,9.49778622 11.7217634,9.43907085 11.7870536,9.37696992 C11.9568283,9.21020111 12.2275658,9.20592477 12.4025223,9.36724852 C12.569488,9.52135866 12.5799454,9.78163715 12.4258817,9.94864672 C12.4213839,9.95343487 12.4168862,9.95807793 12.4122433,9.96315628 C12.2205804,10.1542472 11.8793304,10.4265917 11.4067746,10.6964696 L11.4069196,10.695599 Z M1.04580357,10.9750532 C2.60522321,10.2437712 4.45569196,10.2437712 6.4336942,11.4444376 C8.06710937,12.4344251 9.59664062,12.3245877 10.9642522,11.5425223 C11.1809306,11.4187624 11.3878051,11.2785764 11.583058,11.1231959 C11.6538616,11.0678661 11.7218601,11.0091507 11.7870536,10.9470498 C11.956476,10.7793053 12.2280334,10.775017 12.4026674,10.9373284 C12.4853094,11.0135404 12.5331187,11.1202856 12.5350104,11.232692 C12.5367923,11.3450983 12.4924962,11.4533488 12.4123884,11.5322205 C12.2207254,11.7233114 11.8794754,11.9956559 11.4069196,12.2655338 C9.7811942,13.1957419 7.90852679,13.3302456 5.97158482,12.1562768 C4.26330357,11.1207292 2.72941964,11.1207292 1.42477679,11.731727 C1.25372038,11.8112341 1.08882893,11.9033834 0.931473214,12.0074087 C0.878370536,12.0418447 0.827008929,12.0786506 0.777388393,12.1178264 L0.769553571,12.1243557 C0.585318703,12.2749769 0.315138185,12.2537402 0.156696429,12.076184 C0.0843605844,11.9949251 0.0472813277,11.8882491 0.0536217431,11.7796409 C0.0599621586,11.6710327 0.109202443,11.5693964 0.190502232,11.4971073 C0.195725446,11.4924643 0.20109375,11.4878212 0.206752232,11.4834683 C0.366350446,11.3488196 0.65,11.1603404 1.04580357,10.9756336 L1.04580357,10.9750532 Z" id="形状"></path>
                </g>
            </g>
        </g>
    </g>
</svg>