<?xml version="1.0" encoding="utf-8"?>
<!-- Generator: Adobe Illustrator 23.0.1, SVG Export Plug-In . SVG Version: 6.00 Build 0)  -->
<svg version="1.1" id="图层_1" xmlns="http://www.w3.org/2000/svg" xmlns:xlink="http://www.w3.org/1999/xlink" x="0px" y="0px"
	 viewBox="0 0 36 36" style="enable-background:new 0 0 36 36;" xml:space="preserve">
<style type="text/css">
	.st0{fill:#FFFFFF;}
</style>
<title>刷新</title>
<desc>Created with Sketch.</desc>
<g id="页面-1">
	<g id="常用地点" transform="translate(-854.000000, -804.000000)">
		<g id="刷新" transform="translate(854.000000, 804.000000)">
			<g id="编组" transform="translate(2.000000, 5.000000)">
				<path id="形状" class="st0" d="M3,12.9c0,7.2,5.8,12.9,12.9,12.9c2.4,0,4.8-0.6,6.8-2c0.4-0.2,0.6-0.6,0.6-1.2
					c0-0.8-0.6-1.2-1.2-1.2c-0.2,0-0.6,0-0.8,0.2c-1.6,1.2-3.4,1.8-5.4,1.8c-5.8,0-10.5-4.8-10.5-10.5v-0.8h2.8l-4-6l-4.2,6h3V12.9z
					 M31.8,13.7h-3v-0.8C28.9,5.8,23.1,0,15.9,0c-2.4,0-4.8,0.6-6.8,2C8.8,2,8.4,2.6,8.4,3c0,0.8,0.6,1.2,1.2,1.2
					c0.2,0,0.6,0,0.8-0.2c1.8-1,3.6-1.6,5.6-1.6c5.8,0,10.5,4.8,10.5,10.5v0.8h-2.8l4.2,5.8L31.8,13.7L31.8,13.7z"/>
			</g>
		</g>
	</g>
</g>
</svg>
