<?xml version="1.0" encoding="utf-8"?>
<!-- Generator: Adobe Illustrator 23.0.1, SVG Export Plug-In . SVG Version: 6.00 Build 0)  -->
<svg version="1.1" id="图层_1" xmlns="http://www.w3.org/2000/svg" xmlns:xlink="http://www.w3.org/1999/xlink" x="0px" y="0px"
	 viewBox="0 0 36 36" style="enable-background:new 0 0 36 36;" xml:space="preserve">
<style type="text/css">
	.st0{fill:#FFFFFF;}
</style>
<title>刷新</title>
<desc>Created with Sketch.</desc>
<g id="页面-1">
	<g id="常用地点" transform="translate(-854.000000, -804.000000)">
		<g id="刷新" transform="translate(854.000000, 804.000000)">
			<g id="编组" transform="translate(2.000000, 5.000000)">
				<path id="形状" class="st0" d="M7.1,13c0,5,4,9,9,9c1.7,0,3.3-0.4,4.7-1.4c0.3-0.1,0.4-0.4,0.4-0.8c0-0.6-0.4-0.8-0.8-0.8
					c-0.1,0-0.4,0-0.6,0.1c-1.1,0.8-2.4,1.2-3.8,1.2c-4,0-7.3-3.3-7.3-7.3v-0.6h2L7.9,8.3L5,12.4h2.1V13z M27,13.6h-2.1V13
					c0.1-4.9-4-9-9-9c-1.7,0-3.3,0.4-4.7,1.4c-0.2,0-0.5,0.4-0.5,0.7c0,0.6,0.4,0.8,0.8,0.8c0.1,0,0.4,0,0.6-0.1
					c1.2-0.7,2.5-1.1,3.9-1.1c4,0,7.3,3.3,7.3,7.3v0.6h-2l2.9,4L27,13.6L27,13.6z"/>
			</g>
		</g>
	</g>
</g>
</svg>
