<?xml version="1.0" encoding="utf-8"?>
<!-- Generator: Adobe Illustrator 23.0.1, SVG Export Plug-In . SVG Version: 6.00 Build 0)  -->
<svg version="1.1" id="图层_1" xmlns="http://www.w3.org/2000/svg" xmlns:xlink="http://www.w3.org/1999/xlink" x="0px" y="0px"
	 viewBox="0 0 36 36" style="enable-background:new 0 0 36 36;" xml:space="preserve">
<style type="text/css">
	.st0{fill:#FFFFFF;}
</style>
<title>刷新</title>
<desc>Created with Sketch.</desc>
<g id="页面-1">
	<g id="常用地点" transform="translate(-854.000000, -804.000000)">
		<g id="刷新" transform="translate(854.000000, 804.000000)">
			<g id="编组" transform="translate(2.000000, 5.000000)">
				<path id="形状" class="st0" d="M6.5,13c0,5.3,4.2,9.5,9.5,9.5c1.8,0,3.5-0.4,5-1.5c0.3-0.1,0.4-0.4,0.4-0.9
					c0-0.6-0.4-0.9-0.9-0.9c-0.1,0-0.4,0-0.6,0.1c-1.2,0.9-2.5,1.3-4,1.3c-4.2,0-7.7-3.5-7.7-7.7v-0.6h2.1L7.4,8l-3.1,4.4h2.2
					C6.5,12.4,6.5,13,6.5,13z M27.6,13.6h-2.2V13c0.1-5.2-4.2-9.5-9.5-9.5c-1.8,0-3.5,0.4-5,1.5c-0.2,0-0.5,0.4-0.5,0.7
					c0,0.6,0.4,0.9,0.9,0.9c0.1,0,0.4,0,0.6-0.1c1.3-0.7,2.6-1.2,4.1-1.2c4.2,0,7.7,3.5,7.7,7.7v0.6h-2.1l3.1,4.2L27.6,13.6
					L27.6,13.6z"/>
			</g>
		</g>
	</g>
</g>
</svg>
