<?xml version="1.0" encoding="UTF-8"?>
<svg width="36px" height="36px" viewBox="0 0 36 36" version="1.1" xmlns="http://www.w3.org/2000/svg" xmlns:xlink="http://www.w3.org/1999/xlink">
    <!-- Generator: Sketch 63 (92445) - https://sketch.com -->
    <title>气温标</title>
    <desc>Created with Sketch.</desc>
    <g id="页面-1" stroke="none" stroke-width="1" fill="none" fill-rule="evenodd">
        <g id="XX船舰切图" transform="translate(-201.000000, -162.000000)">
            <g id="气温标_export" transform="translate(201.000000, 162.000000)">
                <g id="温度标" transform="translate(9.000000, 0.000000)">
                    <path d="M10.08,0.72 L7.2,0.72 C6.60353247,0.72 6.06353247,0.961766235 5.67264935,1.35264935 C5.28176624,1.74353247 5.04,2.28353247 5.04,2.88 L5.04004394,18.2031106 C2.46461351,19.655488 0.72,22.5974442 0.72,25.9776 C0.72,28.3951583 1.61209878,30.5861782 3.06188596,32.1712789 C4.48944983,33.732082 6.45974298,34.704 8.64,34.704 C10.820257,34.704 12.7905502,33.732082 14.218114,32.1712789 C15.6679012,30.5861782 16.56,28.3951583 16.56,25.9776 C16.56,22.5978916 14.815849,19.6562701 12.2409805,18.2036882 L12.24,2.88004607 C12.24,2.28353247 11.9982338,1.74353247 11.6073506,1.35264935 C11.2164675,0.961766235 10.6764675,0.72 10.08,0.72 Z" id="形状结合" stroke="#FFFFFF" stroke-width="1.44"></path>
                    <path d="M8.64,7.776 C9.23646753,7.776 9.72,8.25953247 9.72,8.856 L9.7210437,21.9200771 C11.5837595,22.4384005 12.96,24.2648236 12.96,26.4384 C12.96,29.0151397 11.0258701,31.104 8.64,31.104 C6.25412988,31.104 4.32,29.0151397 4.32,26.4384 C4.32,24.2644341 5.69673382,22.4377459 7.5599578,21.9197985 L7.56,8.856 C7.56,8.25953247 8.04353247,7.776 8.64,7.776 Z" id="形状结合" fill="#FFFFFF"></path>
                </g>
            </g>
        </g>
    </g>
</svg>