<?xml version="1.0" encoding="UTF-8"?>
<svg width="36px" height="36px" viewBox="0 0 36 36" version="1.1" xmlns="http://www.w3.org/2000/svg" xmlns:xlink="http://www.w3.org/1999/xlink">
    <!-- Generator: Sketch 63 (92445) - https://sketch.com -->
    <title>潮汐标</title>
    <desc>Created with Sketch.</desc>
    <g id="页面-1" stroke="none" stroke-width="1" fill="none" fill-rule="evenodd">
        <g id="XX船舰切图" transform="translate(-201.000000, -762.000000)">
            <g id="潮汐标_export" transform="translate(201.000000, 762.000000)">
                <g id="潮汐标" transform="translate(4.800000, 7.669565)">
                    <path d="M1.22336923e-13,19.9754541 C0.562550102,20.2161488 1.3494808,20.3364962 2.36079208,20.3364962 C3.87775902,20.3364962 6.26462089,19.0226769 6.58114756,16.245014 C6.89767422,13.4673512 6.65283386,13.0390225 7.02715676,11.4686863 C7.40147966,9.89835006 8.21524879,7.20797293 11.5231614,6.51515583 C13.6185294,6.15053894 15.177312,6.41211982 16.6970932,7.51068692 C18.6647546,8.94430247 19.1529059,10.9823476 19.1238816,12.702396 C19.0948574,14.4224445 17.7328954,16.6544077 15.936477,17.1732159 C14.1400586,17.692024 10.9850894,16.9079423 10.9850894,13.7134413 C10.9850894,11.8397122 12.3510981,9.94027592 14.0038311,9.94027592 C15.656564,9.94027592 16.6970932,10.8184423 16.6970932,12.3564575 C16.6970932,13.8944727 14.0038311,14.6566944 13.1688411,13.7134413" id="路径-9" stroke="#FFFFFF" stroke-width="1.44" stroke-linecap="round"></path>
                    <path d="M13.9906847,6.27842919 C14.0237927,5.92767974 14.080303,5.56648867 14.1896157,5.10790698 C14.5639386,3.53757075 15.4823255,1.14990761 18.6856204,0.15437653 C20.7809884,-0.210240358 22.3397709,0.0513405135 23.8595522,1.14990761 C25.8272135,2.58352317 26.3153648,4.62156831 26.2863406,6.34161674 C26.2573164,8.06166516 24.8953544,10.2936284 23.0989359,10.8124365 C21.3025175,11.3312447 18.1475484,10.547163 18.1475484,7.35266203 C18.1475484,5.47893286 19.513557,3.57949662 21.16629,3.57949662 C22.819023,3.57949662 23.8595522,4.457663 23.8595522,5.99567819 C23.8595522,7.53369338 21.4596936,7.65660732 20.4770911,6.82777919" id="路径" stroke="#FFFFFF" stroke-width="1.44" stroke-linecap="round"></path>
                    <circle id="椭圆形" fill="#FFFFFF" cx="21.510285" cy="5.73913043" r="2.29565217"></circle>
                    <circle id="椭圆形备份-3" fill="#FFFFFF" cx="14.0494155" cy="12.626087" r="2.29565217"></circle>
                </g>
            </g>
        </g>
    </g>
</svg>