<?xml version="1.0" encoding="UTF-8"?>
<svg width="14px" height="14px" viewBox="0 0 14 14" version="1.1" xmlns="http://www.w3.org/2000/svg" xmlns:xlink="http://www.w3.org/1999/xlink">
    <!-- Generator: Sketch 63 (92445) - https://sketch.com -->
    <title>左2</title>
    <desc>Created with Sketch.</desc>
    <g id="页面-1" stroke="none" stroke-width="1" fill="none" fill-rule="evenodd">
        <g id="左2_export" fill="#FFFFFF" fill-rule="nonzero">
            <g id="左2" transform="translate(7.000000, 6.875000) rotate(-180.000000) translate(-7.000000, -6.875000) translate(2.500000, 1.875000)">
                <path d="M0.655752899,9.67369292 L5.86320231,5.17157506 C6.01749711,5.0189609 6.05607082,4.79003965 5.90177602,4.63742549 L5.86320231,4.59927194 L0.655752899,0.0971540949 C0.501458093,-0.0554600681 0.270015898,-0.0173065322 0.115721102,0.135307631 C0.038573704,0.173461176 0,0.287921794 0,0.364228875 L0,9.36846459 C0,9.59738584 0.154294796,9.75 0.385737,9.75 C0.462884398,9.75 0.5786055,9.71184645 0.655752899,9.67369292 Z" id="路径"></path>
                <path d="M8.25,0.75 L7.5,0.75 C7.0875,0.75 6.75,1.0875 6.75,1.5 L6.75,9 C6.75,9.4125 7.0875,9.75 7.5,9.75 L8.25,9.75 C8.6625,9.75 9,9.4125 9,9 L9,1.5 C9,1.0875 8.6625,0.75 8.25,0.75 Z" id="路径"></path>
            </g>
        </g>
    </g>
</svg>