<?xml version="1.0" standalone="no"?><!DOCTYPE svg PUBLIC "-//W3C//DTD SVG 1.1//EN" "http://www.w3.org/Graphics/SVG/1.1/DTD/svg11.dtd"><svg t="1606898124561" class="icon" viewBox="0 0 1024 1024" version="1.1" xmlns="http://www.w3.org/2000/svg" p-id="18779" xmlns:xlink="http://www.w3.org/1999/xlink" width="32" height="32"><defs><style type="text/css">@font-face { font-family: uc-nexus-iconfont; src: url("chrome-extension://pogijhnlcfmcppgimcaccdkmbedjkmhi/res/font_9qmmi8b8jsxxbt9.woff") format("woff"), url("chrome-extension://pogijhnlcfmcppgimcaccdkmbedjkmhi/res/font_9qmmi8b8jsxxbt9.ttf") format("truetype"); }
</style></defs><path d="M853.1 916.4H167.6c-34.9 0-63.3-28.4-63.3-63.3V167.6c0-34.9 28.4-63.3 63.3-63.3h685.5c34.9 0 63.3 28.4 63.3 63.3v685.5c0 34.9-28.4 63.3-63.3 63.3z m-685.5-772c-12.8 0-23.3 10.4-23.3 23.3v685.5c0 12.8 10.4 23.3 23.3 23.3h685.5c12.8 0 23.3-10.4 23.3-23.3V167.6c0-12.8-10.4-23.3-23.3-23.3H167.6z" fill="#ffffff" p-id="18780"></path></svg>