<?xml version="1.0" encoding="UTF-8"?>
<svg width="25px" height="24px" viewBox="0 0 25 24" version="1.1" xmlns="http://www.w3.org/2000/svg" xmlns:xlink="http://www.w3.org/1999/xlink">
    <!-- Generator: Sketch 63 (92445) - https://sketch.com -->
    <title>测量面积标</title>
    <desc>Created with Sketch.</desc>
    <g id="页面-1" stroke="none" stroke-width="1" fill="none" fill-rule="evenodd">
        <g id="测量面积标_export" transform="translate(0.500000, 0.000000)" stroke="#FFFFFF">
            <g id="测量面积标" transform="translate(1.843750, 3.500000)">
                <path d="M5.77408696,6.38793478 L5.77408696,5.45663043 L4.5633913,5.45663043 L4.5633913,12.6276739 L5.68095652,12.6276739 L5.68095652,9.55436957 C5.68095652,8.62306522 5.77408696,7.97115217 5.96034783,7.59863043 C6.1466087,7.2261087 6.426,6.94671739 6.7053913,6.66732609 C7.07791304,6.48106522 7.45043478,6.38793478 7.82295652,6.38793478 C8.19547826,6.38793478 8.47486957,6.48106522 8.75426087,6.66732609 C9.03365217,6.85358696 9.12678261,7.13297826 9.21991304,7.41236957 C9.31304348,7.69176087 9.31304348,8.25054348 9.31304348,8.99558696 L9.31304348,12.6276739 L10.4306087,12.6276739 L10.4306087,9.83376087 C10.4306087,8.90245652 10.5237391,8.25054348 10.6168696,7.87802174 C10.71,7.41236957 10.9893913,7.13297826 11.361913,6.85358696 C11.7344348,6.57419565 12.1069565,6.48106522 12.4794783,6.48106522 C12.852,6.48106522 13.2245217,6.57419565 13.4107826,6.76045652 C13.6901739,6.94671739 13.7833043,7.2261087 13.8764348,7.5055 C13.9695652,7.7848913 13.9695652,8.25054348 13.9695652,8.90245652 L13.9695652,12.8139348 L15.1802609,12.8139348 L15.1802609,8.90245652 C15.1802609,7.59863043 14.9008696,6.66732609 14.4352174,6.20167391 C13.9695652,5.73602174 13.4107826,5.45663043 12.7588696,5.45663043 C12.1069565,5.45663043 11.6413043,5.6428913 11.1756522,5.92228261 C10.71,6.20167391 10.4306087,6.57419565 10.2443478,6.94671739 C10.1512174,6.57419565 9.87182609,6.29480435 9.49930435,6.01541304 C9.03365217,5.73602174 8.568,5.54976087 8.00921739,5.54976087 C6.98478261,5.27036957 6.23973913,5.6428913 5.77408696,6.38793478 Z" id="路径" stroke-width="0.2" fill="#FFFFFF" fill-rule="nonzero"></path>
                <path d="M18.7192174,6.94671739 L20.3024348,5.27036957 C20.768087,4.80471739 21.0474783,4.33906522 21.3268696,3.96654348 C21.5131304,3.59402174 21.6993913,3.2215 21.6993913,2.75584783 C21.6993913,2.19706522 21.5131304,1.73141304 21.0474783,1.26576087 C20.5818261,0.800108696 20.0230435,0.800108696 19.3711304,0.800108696 C18.7192174,0.800108696 18.2535652,0.986369565 17.787913,1.45202174 C17.3222609,1.91767391 17.136,2.47645652 17.0428696,3.2215 L17.8810435,3.2215 C17.8810435,2.66271739 18.0673043,2.29019565 18.3466957,2.01080435 C18.626087,1.73141304 18.9054783,1.63828261 19.278,1.63828261 C19.6505217,1.63828261 20.0230435,1.73141304 20.3024348,2.01080435 C20.5818261,2.29019565 20.6749565,2.56958696 20.6749565,2.9421087 C20.6749565,3.31463043 20.5818261,3.59402174 20.3955652,3.87341304 C20.2093043,4.15280435 19.929913,4.52532609 19.4642609,4.99097826 L16.7634783,7.87802174 L21.6062609,7.87802174 L21.6062609,7.03984783 L18.7192174,7.03984783 L18.7192174,6.94671739 Z" id="路径" stroke-width="0.2" fill="#FFFFFF" fill-rule="nonzero"></path>
                <polyline id="路径-8" stroke-width="1.6" stroke-linecap="round" points="6.97265625 0.824012039 0.799293335 0.824012039 0.799293335 16.675666 18.4814195 16.675666 18.4814195 12.2818592"></polyline>
            </g>
        </g>
    </g>
</svg>