<?xml version="1.0" encoding="UTF-8"?>
<svg width="25px" height="25px" viewBox="0 0 25 25" version="1.1" xmlns="http://www.w3.org/2000/svg" xmlns:xlink="http://www.w3.org/1999/xlink">
    <!-- Generator: Sketch 63 (92445) - https://sketch.com -->
    <title>清除要素标</title>
    <desc>Created with Sketch.</desc>
    <g id="页面-1" stroke="none" stroke-width="1" fill="none" fill-rule="evenodd">
        <g id="清除要素标_export" transform="translate(0.500000, 0.750000)" fill="#FFFFFF" fill-rule="nonzero" stroke="#FFFFFF" stroke-width="0.4">
            <g id="清除要素标" transform="translate(4.312500, 1.875000)">
                <path d="M15.8913179,9.23278188 L15.1436929,9.23278188 L16.8252026,17.203138 C16.8252026,17.7037105 16.4074121,18.1086782 15.8913179,18.1086782 L0.943989929,18.1086782 C0.70007337,18.1123692 0.464639298,18.0191057 0.289495532,17.8492987 C0.114351766,17.6794917 0.0138497926,17.4470554 0.0101053065,17.203138 L1.69161503,9.23278188 L0.943989929,9.23278188 C0.700073373,9.23658475 0.464639304,9.14332127 0.289495538,8.97351429 C0.114351773,8.80370732 0.0138497972,8.57127102 0.0101053065,8.32735357 L0.0101053065,7.04164535 C0.0101053065,6.54236631 0.427895799,6.13621704 0.943989929,6.13621704 L6.43605939,6.13621704 L6.43605939,1.81085664 C6.43605939,0.811005079 7.38546566,0 8.41765394,0 C9.44984222,0 10.3578575,0.811005079 10.3578575,1.81085664 L10.3578575,6.13621704 L15.8913179,6.13621704 C16.4074121,6.13621704 16.8252026,6.54236631 16.8252026,7.04164535 L16.8252026,8.32735357 C16.8252026,8.82663261 16.4074121,9.23278188 15.8913179,9.23278188 Z M1.06428255,17.1061278 L3.77668709,17.1061278 C3.70915899,17.0103922 3.682621,16.8916696 3.70295935,16.7762932 L4.27208572,12.8480278 C4.32164375,12.5984049 4.56242965,12.4348088 4.81275577,12.4806826 C4.93271266,12.4994181 5.04021817,12.5652884 5.11138305,12.6636563 C5.18254794,12.7620241 5.21147715,12.884741 5.19174219,13.0045375 L4.62261583,16.9340964 C4.61118563,16.9957819 4.58695083,17.054386 4.55147504,17.1061278 L15.7787861,17.1061278 L13.905843,9.19656475 L2.93205183,9.19656475 L1.06428255,17.1061278 Z M9.35153858,1.81085664 C9.35153858,1.31028412 8.93374809,0.905428328 8.41765394,0.90542831 C8.17373738,0.901625436 7.9383033,0.994888913 7.76315953,1.16469589 C7.58801576,1.33450287 7.48751378,1.56693917 7.4837693,1.81085664 L7.4837693,6.33799821 L9.35153858,6.33799821 L9.35153858,1.81085664 Z M15.8913179,7.24342652 L0.943989929,7.24342652 L0.943989929,8.14885484 L15.8913179,8.14885484 L15.8913179,7.24342652 Z" id="形状"></path>
            </g>
        </g>
    </g>
</svg>