<?xml version="1.0" encoding="UTF-8"?>
<svg width="24px" height="24px" viewBox="0 0 24 24" version="1.1" xmlns="http://www.w3.org/2000/svg" xmlns:xlink="http://www.w3.org/1999/xlink">
    <!-- Generator: Sketch 63 (92445) - https://sketch.com -->
    <title>编组</title>
    <desc>Created with Sketch.</desc>
    <g id="页面-1" stroke="none" stroke-width="1" fill="none" fill-rule="evenodd">
        <g id="编组_export" fill-rule="nonzero" stroke="#FFFFFF">
            <g id="编组" transform="translate(1.500000, 1.500000)">
                <path d="M20.7544004,10.5 C20.7544004,16.1408838 16.1809111,20.7143731 10.5400273,20.7143731 C4.89914345,20.7143731 0.325654179,16.1408838 0.325654179,10.5 C0.325654179,4.85911615 4.89914345,0.285626883 10.5400273,0.285626883 C16.1809111,0.285626883 20.7544004,4.85911615 20.7544004,10.5 Z" id="路径" stroke-width="1.4"></path>
                <path d="M18.7579772,4.10304499 L15.0468044,4.10304499 C14.4118035,2.35370388 13.5148955,1.00710655 12.459855,0.263389495 C11.8372082,0.147260919 11.1972656,0.0830195783 10.5400273,0.0830195783 C9.88278897,0.0830195783 9.24284639,0.147260919 8.62019955,0.263389495 C7.56762989,1.00710655 6.67072195,2.35370388 6.03325019,4.10304499 L2.32207737,4.10304499 C2.09723268,4.3896602 1.88721291,4.69110034 1.69448889,4.99995294 L5.74169334,4.99995294 C5.3092997,6.48491623 5.0473927,8.20213667 5.01033038,10.0503106 L0.132930158,10.0503106 C0.127988517,10.1985599 0.120576054,10.3492799 0.120576054,10.5 C0.120576054,10.6507201 0.125517696,10.7989693 0.132930158,10.9496894 L5.01033038,10.9496894 C5.0473927,12.7978633 5.30682888,14.5150838 5.74169334,16.0000471 L1.69448889,16.0000471 C1.88721291,16.3088997 2.09723268,16.6103398 2.32207737,16.896955 L6.03572101,16.896955 C6.67319277,18.6462961 7.56762989,19.9928934 8.62267037,20.7390813 C9.24531721,20.8552099 9.88525979,20.9169804 10.5424981,20.9169804 C11.1972656,20.9169804 11.839679,20.8527391 12.4623259,20.7390813 C13.5173663,19.9928934 14.4142743,18.6487669 15.0492752,16.896955 L18.7629189,16.896955 C18.9877636,16.6103398 19.1953125,16.3088997 19.3905073,16.0000471 L15.3383613,16.0000471 C15.7707549,14.5150838 16.0326619,12.7978633 16.0672534,10.9496894 L20.9446536,10.9496894 C20.9495953,10.8014401 20.9545369,10.6507201 20.9545369,10.5 C20.9545369,10.3492799 20.9495953,10.1985599 20.9446536,10.0503106 L16.0697242,10.0503106 C16.0326619,8.20213667 15.7732257,6.48491623 15.3408321,4.99995294 L19.3880365,4.99995294 C19.1928417,4.68862952 18.9828219,4.3896602 18.7579772,4.10304499 L18.7579772,4.10304499 Z M10.0903379,20.3931664 C8.89446066,20.1263178 7.81718279,18.8143119 7.06111163,16.896955 L10.0903379,16.896955 L10.0903379,20.3931664 L10.0903379,20.3931664 Z M10.0903379,16.0000471 L6.74731739,16.0000471 C6.28774473,14.5323795 6.00112952,12.7978633 5.96159639,10.9496894 L10.0928087,10.9496894 L10.0928087,16.0000471 L10.0903379,16.0000471 Z M10.0903379,10.0503106 L5.96159639,10.0503106 C6.00112952,8.20213667 6.28774473,6.46762048 6.74731739,4.99995294 L10.0928087,4.99995294 L10.0928087,10.0503106 L10.0903379,10.0503106 Z M10.0903379,4.10304499 L7.06358245,4.10304499 C7.81965361,2.18568806 8.89693148,0.873682229 10.0928087,0.606833584 L10.0928087,4.10304499 L10.0903379,4.10304499 Z M10.9872459,0.606833584 C12.1831231,0.873682229 13.260401,2.18568806 14.0164721,4.10304499 L10.9872459,4.10304499 L10.9872459,0.606833584 L10.9872459,0.606833584 Z M10.9872459,20.3931664 L10.9872459,16.896955 L14.0164721,16.896955 C13.260401,18.8118411 12.1855939,20.1263178 10.9872459,20.3931664 L10.9872459,20.3931664 Z M14.3327372,16.0000471 L10.9872459,16.0000471 L10.9872459,10.9496894 L15.1184582,10.9496894 C15.0789251,12.7953925 14.7947807,14.5299087 14.3327372,16.0000471 Z M10.9872459,10.0503106 L10.9872459,4.99995294 L14.3327372,4.99995294 C14.7923099,6.46762048 15.0789251,8.20213667 15.1184582,10.0503106 L10.9872459,10.0503106 L10.9872459,10.0503106 Z" id="形状" stroke-width="0.4" fill="#FFFFFF"></path>
            </g>
        </g>
    </g>
</svg>