<?xml version="1.0" encoding="UTF-8"?>
<svg width="25px" height="24px" viewBox="0 0 25 24" version="1.1" xmlns="http://www.w3.org/2000/svg" xmlns:xlink="http://www.w3.org/1999/xlink">
    <!-- Generator: Sketch 63 (92445) - https://sketch.com -->
    <title>测量距离标</title>
    <desc>Created with Sketch.</desc>
    <g id="页面-1" stroke="none" stroke-width="1" fill="none" fill-rule="evenodd">
        <g id="测量距离标_export" transform="translate(0.500000, 0.000000)" fill="#FFFFFF" fill-rule="nonzero">
            <g id="测量距离标" transform="translate(0.500000, 0.500000)">
                <path d="M22.3472627,7.06551465 L15.7733955,0.491647461 C15.1302939,-0.151454102 14.7730303,-0.151454102 14.201377,0.42022168 C9.56878699,4.98136109 4.9717178,9.57843776 0.410585938,14.2110352 C-0.0896191406,14.7112402 -0.161044922,15.2114004 0.410585938,15.7830537 C2.69710938,17.9981514 4.91220703,20.2846973 7.19879785,22.5712881 C7.41316504,22.7856553 7.62753223,22.9285518 7.91334766,22.9285518 C8.34208203,22.9285518 8.55644922,22.6427363 8.84226465,22.4283691 L22.4187109,8.85190039 C22.9903418,8.06590234 22.9903418,7.78006445 22.3472627,7.06553711 L22.3472627,7.06551465 Z M19.9892461,8.70898145 L8.62789746,20.0703525 C8.0562666,20.6419834 7.62753223,20.6419834 7.05587891,20.0703525 L2.76858008,15.7830537 C2.33986816,15.3543193 2.12550098,14.925585 2.55421289,14.4254023 C2.91149902,13.9252197 3.19731445,13.7108525 3.69749707,14.2825059 C4.34059863,14.9970557 5.05514844,15.6401348 5.69825,16.3546846 C5.98406543,16.6405225 6.12698438,16.7119707 6.48424805,16.3546846 C7.27026855,15.5686865 7.27026855,15.5686865 6.48424805,14.7826885 L4.6978623,12.9962803 C4.41204688,12.7104648 4.34059863,12.5675459 4.6978623,12.2102822 C5.55533105,11.3528135 5.48386035,11.3528135 6.3413291,12.2102822 C6.62714453,12.4960977 6.98443066,12.7819131 7.19879785,13.0677285 C7.69898047,13.7108301 8.05624414,13.7108301 8.55644922,13.0677285 C8.91371289,12.6389941 9.05663184,12.4246494 8.55644922,12.0673633 C8.19916309,11.7815479 7.84189941,11.3528135 7.48461328,11.066998 C6.62714453,10.2095293 6.62714453,10.2095293 7.55606152,9.35206055 C7.84187695,9.13769336 7.91334766,9.06624512 8.19916309,9.35206055 C8.84226465,10.0666104 9.55681445,10.7097119 10.1998936,11.4242617 C10.6286279,11.8529961 10.9144434,12.0673633 11.4146484,11.49571 C11.8433604,10.9955273 12.1291982,10.7811602 11.4860742,10.2095293 C10.7715469,9.63789844 10.1998936,8.92332617 9.48534375,8.28024707 C9.12808008,7.92296094 9.19952832,7.78004199 9.48534375,7.49422656 C10.2713643,6.77967676 10.1998936,6.70822852 10.9859141,7.49422656 L12.2720947,8.78042969 C12.4864619,9.06624512 12.7008291,8.99479687 12.9151963,8.78042969 C13.8441133,7.99440918 13.8441133,7.99440918 12.9151963,7.13696289 C12.5579326,6.77967676 12.2006465,6.35094238 11.7719346,5.99367871 C11.2002813,5.49347363 11.7004639,5.27912891 11.9862793,5.06476172 C12.2720947,4.85039453 12.4150137,4.20729297 12.9866445,4.77894629 L15.1303164,6.9225957 C15.7019473,7.63714551 15.9163145,6.9225957 16.2735781,6.70822852 C16.7023125,6.42241309 16.845209,6.13659766 16.3450488,5.70786328 C15.630499,5.13623242 15.0588457,4.4931084 14.4157441,3.77855859 C14.201377,3.56421387 13.772665,3.42129492 13.9870322,3.13550195 C14.2013994,2.77819336 14.4872148,2.42092969 14.9873975,2.42092969 C15.3446611,2.42092969 15.5590283,2.56382617 15.7733955,2.77819336 L20.0606943,7.06549219 C20.6323252,7.70859375 20.6323252,8.13732812 19.9892461,8.70895898 L19.9892461,8.70898145 Z" id="形状"></path>
            </g>
        </g>
    </g>
</svg>